<mxfile host="Electron" agent="Mozilla/5.0 (Windows NT 10.0; Win64; x64) AppleWebKit/537.36 (KHTML, like Gecko) draw.io/26.0.16 Chrome/132.0.6834.196 Electron/34.2.0 Safari/537.36" version="26.0.16" pages="2">
  <diagram name="lists" id="ZD-XGtzqm1boTK_Z1wiD">
    <mxGraphModel dx="1738" dy="1191" grid="1" gridSize="10" guides="1" tooltips="1" connect="1" arrows="1" fold="1" page="1" pageScale="1" pageWidth="1169" pageHeight="827" math="0" shadow="0">
      <root>
        <mxCell id="0" />
        <mxCell id="1" parent="0" />
        <mxCell id="GVfrvTJsgrzWPwlHAr5i-269" value="" style="swimlane;startSize=0;fontFamily=Helvetica;fontSize=11;fontColor=default;labelBackgroundColor=default;strokeColor=none;" vertex="1" parent="1">
          <mxGeometry y="20" width="1150" height="760" as="geometry" />
        </mxCell>
        <mxCell id="GVfrvTJsgrzWPwlHAr5i-268" value="" style="group" vertex="1" connectable="0" parent="GVfrvTJsgrzWPwlHAr5i-269">
          <mxGeometry x="35.000000000000455" y="21" width="1080" height="720" as="geometry" />
        </mxCell>
        <mxCell id="GVfrvTJsgrzWPwlHAr5i-141" value="Add List" style="swimlane;childLayout=stackLayout;resizeParent=1;resizeParentMax=0;startSize=20;html=1;" vertex="1" parent="GVfrvTJsgrzWPwlHAr5i-268">
          <mxGeometry y="79" width="490" height="610" as="geometry" />
        </mxCell>
        <mxCell id="GVfrvTJsgrzWPwlHAr5i-142" value="User" style="swimlane;startSize=20;html=1;" vertex="1" parent="GVfrvTJsgrzWPwlHAr5i-141">
          <mxGeometry y="20" width="170" height="590" as="geometry" />
        </mxCell>
        <mxCell id="GVfrvTJsgrzWPwlHAr5i-145" value="" style="ellipse;html=1;shape=startState;fillColor=#000000;strokeColor=#ff0000;" vertex="1" parent="GVfrvTJsgrzWPwlHAr5i-142">
          <mxGeometry x="44.999999999999545" y="40" width="30" height="30" as="geometry" />
        </mxCell>
        <mxCell id="GVfrvTJsgrzWPwlHAr5i-146" value="" style="edgeStyle=orthogonalEdgeStyle;html=1;verticalAlign=bottom;endArrow=open;endSize=8;strokeColor=#ff0000;rounded=0;entryX=0.5;entryY=0;entryDx=0;entryDy=0;" edge="1" source="GVfrvTJsgrzWPwlHAr5i-145" parent="GVfrvTJsgrzWPwlHAr5i-142" target="GVfrvTJsgrzWPwlHAr5i-148">
          <mxGeometry relative="1" as="geometry">
            <mxPoint x="59.999999999999545" y="90" as="targetPoint" />
          </mxGeometry>
        </mxCell>
        <mxCell id="GVfrvTJsgrzWPwlHAr5i-157" style="edgeStyle=orthogonalEdgeStyle;rounded=0;orthogonalLoop=1;jettySize=auto;html=1;exitX=0.5;exitY=1;exitDx=0;exitDy=0;entryX=0.5;entryY=0;entryDx=0;entryDy=0;endArrow=open;endFill=0;" edge="1" parent="GVfrvTJsgrzWPwlHAr5i-142" source="GVfrvTJsgrzWPwlHAr5i-148" target="GVfrvTJsgrzWPwlHAr5i-156">
          <mxGeometry relative="1" as="geometry" />
        </mxCell>
        <mxCell id="GVfrvTJsgrzWPwlHAr5i-148" value="got to menu" style="rounded=1;whiteSpace=wrap;html=1;" vertex="1" parent="GVfrvTJsgrzWPwlHAr5i-142">
          <mxGeometry x="20" y="100" width="80" height="30" as="geometry" />
        </mxCell>
        <mxCell id="GVfrvTJsgrzWPwlHAr5i-156" value="click on &lt;br&gt;my Lists" style="rounded=1;whiteSpace=wrap;html=1;" vertex="1" parent="GVfrvTJsgrzWPwlHAr5i-142">
          <mxGeometry x="20" y="150" width="80" height="30" as="geometry" />
        </mxCell>
        <mxCell id="GVfrvTJsgrzWPwlHAr5i-183" value="" style="edgeStyle=orthogonalEdgeStyle;shape=connector;rounded=0;orthogonalLoop=1;jettySize=auto;html=1;strokeColor=default;align=center;verticalAlign=middle;fontFamily=Helvetica;fontSize=11;fontColor=default;labelBackgroundColor=default;endArrow=open;endFill=0;" edge="1" parent="GVfrvTJsgrzWPwlHAr5i-142" source="GVfrvTJsgrzWPwlHAr5i-170" target="GVfrvTJsgrzWPwlHAr5i-182">
          <mxGeometry relative="1" as="geometry" />
        </mxCell>
        <mxCell id="GVfrvTJsgrzWPwlHAr5i-170" value="display result" style="rounded=1;whiteSpace=wrap;html=1;" vertex="1" parent="GVfrvTJsgrzWPwlHAr5i-142">
          <mxGeometry x="30" y="204" width="90" height="30" as="geometry" />
        </mxCell>
        <mxCell id="GVfrvTJsgrzWPwlHAr5i-182" value="click on &lt;br&gt;+ Button" style="rounded=1;whiteSpace=wrap;html=1;" vertex="1" parent="GVfrvTJsgrzWPwlHAr5i-142">
          <mxGeometry x="30" y="300" width="90" height="30" as="geometry" />
        </mxCell>
        <mxCell id="GVfrvTJsgrzWPwlHAr5i-186" value="Fill Form" style="rounded=1;whiteSpace=wrap;html=1;" vertex="1" parent="GVfrvTJsgrzWPwlHAr5i-142">
          <mxGeometry x="30" y="353" width="90" height="30" as="geometry" />
        </mxCell>
        <mxCell id="GVfrvTJsgrzWPwlHAr5i-205" value="" style="ellipse;html=1;shape=endState;fillColor=#000000;strokeColor=#ff0000;fontFamily=Helvetica;fontSize=11;fontColor=default;labelBackgroundColor=default;" vertex="1" parent="GVfrvTJsgrzWPwlHAr5i-142">
          <mxGeometry x="74.99999999999955" y="550" width="30" height="30" as="geometry" />
        </mxCell>
        <mxCell id="GVfrvTJsgrzWPwlHAr5i-208" style="edgeStyle=orthogonalEdgeStyle;shape=connector;rounded=0;orthogonalLoop=1;jettySize=auto;html=1;exitX=0.5;exitY=1;exitDx=0;exitDy=0;entryX=0.5;entryY=0;entryDx=0;entryDy=0;strokeColor=default;align=center;verticalAlign=middle;fontFamily=Helvetica;fontSize=11;fontColor=default;labelBackgroundColor=default;endArrow=open;endFill=0;" edge="1" parent="GVfrvTJsgrzWPwlHAr5i-142" source="GVfrvTJsgrzWPwlHAr5i-207" target="GVfrvTJsgrzWPwlHAr5i-205">
          <mxGeometry relative="1" as="geometry" />
        </mxCell>
        <mxCell id="GVfrvTJsgrzWPwlHAr5i-207" value="go to My Lists" style="rounded=1;whiteSpace=wrap;html=1;" vertex="1" parent="GVfrvTJsgrzWPwlHAr5i-142">
          <mxGeometry x="45" y="500" width="90" height="30" as="geometry" />
        </mxCell>
        <mxCell id="GVfrvTJsgrzWPwlHAr5i-143" value="App" style="swimlane;startSize=20;html=1;" vertex="1" parent="GVfrvTJsgrzWPwlHAr5i-141">
          <mxGeometry x="170" y="20" width="200" height="590" as="geometry" />
        </mxCell>
        <mxCell id="GVfrvTJsgrzWPwlHAr5i-166" style="edgeStyle=orthogonalEdgeStyle;shape=connector;rounded=0;orthogonalLoop=1;jettySize=auto;html=1;exitX=0.5;exitY=1;exitDx=0;exitDy=0;entryX=0.5;entryY=0;entryDx=0;entryDy=0;strokeColor=default;align=center;verticalAlign=middle;fontFamily=Helvetica;fontSize=11;fontColor=default;labelBackgroundColor=default;endArrow=open;endFill=0;" edge="1" parent="GVfrvTJsgrzWPwlHAr5i-143" source="GVfrvTJsgrzWPwlHAr5i-158" target="GVfrvTJsgrzWPwlHAr5i-165">
          <mxGeometry relative="1" as="geometry" />
        </mxCell>
        <mxCell id="GVfrvTJsgrzWPwlHAr5i-158" value="go to My Lists" style="rounded=1;whiteSpace=wrap;html=1;" vertex="1" parent="GVfrvTJsgrzWPwlHAr5i-143">
          <mxGeometry x="45" y="60" width="90" height="30" as="geometry" />
        </mxCell>
        <mxCell id="GVfrvTJsgrzWPwlHAr5i-165" value="get Lists" style="rounded=1;whiteSpace=wrap;html=1;" vertex="1" parent="GVfrvTJsgrzWPwlHAr5i-143">
          <mxGeometry x="45" y="110" width="90" height="30" as="geometry" />
        </mxCell>
        <mxCell id="GVfrvTJsgrzWPwlHAr5i-168" value="set Lists in component" style="rounded=1;whiteSpace=wrap;html=1;" vertex="1" parent="GVfrvTJsgrzWPwlHAr5i-143">
          <mxGeometry x="67" y="169" width="90" height="30" as="geometry" />
        </mxCell>
        <mxCell id="GVfrvTJsgrzWPwlHAr5i-174" value="set empty message in component" style="rounded=1;whiteSpace=wrap;html=1;" vertex="1" parent="GVfrvTJsgrzWPwlHAr5i-143">
          <mxGeometry x="60" y="239" width="115" height="30" as="geometry" />
        </mxCell>
        <mxCell id="GVfrvTJsgrzWPwlHAr5i-178" value="" style="rhombus;fontFamily=Helvetica;fontSize=11;fontColor=default;labelBackgroundColor=default;" vertex="1" parent="GVfrvTJsgrzWPwlHAr5i-143">
          <mxGeometry x="-4.547473508864641e-13" y="204" width="30" height="30" as="geometry" />
        </mxCell>
        <mxCell id="GVfrvTJsgrzWPwlHAr5i-179" style="edgeStyle=orthogonalEdgeStyle;shape=connector;rounded=0;orthogonalLoop=1;jettySize=auto;html=1;exitX=0;exitY=0.5;exitDx=0;exitDy=0;entryX=0.5;entryY=1;entryDx=0;entryDy=0;strokeColor=default;align=center;verticalAlign=middle;fontFamily=Helvetica;fontSize=11;fontColor=default;labelBackgroundColor=default;endArrow=open;endFill=0;" edge="1" parent="GVfrvTJsgrzWPwlHAr5i-143" source="GVfrvTJsgrzWPwlHAr5i-174" target="GVfrvTJsgrzWPwlHAr5i-178">
          <mxGeometry relative="1" as="geometry" />
        </mxCell>
        <mxCell id="GVfrvTJsgrzWPwlHAr5i-180" style="edgeStyle=orthogonalEdgeStyle;shape=connector;rounded=0;orthogonalLoop=1;jettySize=auto;html=1;exitX=0;exitY=0.5;exitDx=0;exitDy=0;entryX=0.5;entryY=0;entryDx=0;entryDy=0;strokeColor=default;align=center;verticalAlign=middle;fontFamily=Helvetica;fontSize=11;fontColor=default;labelBackgroundColor=default;endArrow=open;endFill=0;" edge="1" parent="GVfrvTJsgrzWPwlHAr5i-143" source="GVfrvTJsgrzWPwlHAr5i-168" target="GVfrvTJsgrzWPwlHAr5i-178">
          <mxGeometry relative="1" as="geometry" />
        </mxCell>
        <mxCell id="GVfrvTJsgrzWPwlHAr5i-184" value="go to Add List Component" style="rounded=1;whiteSpace=wrap;html=1;" vertex="1" parent="GVfrvTJsgrzWPwlHAr5i-143">
          <mxGeometry x="45" y="300" width="90" height="30" as="geometry" />
        </mxCell>
        <mxCell id="GVfrvTJsgrzWPwlHAr5i-197" style="edgeStyle=orthogonalEdgeStyle;shape=connector;rounded=0;orthogonalLoop=1;jettySize=auto;html=1;exitX=1;exitY=0.5;exitDx=0;exitDy=0;entryX=0;entryY=0.5;entryDx=0;entryDy=0;strokeColor=default;align=center;verticalAlign=middle;fontFamily=Helvetica;fontSize=11;fontColor=default;labelBackgroundColor=default;endArrow=open;endFill=0;" edge="1" parent="GVfrvTJsgrzWPwlHAr5i-143" source="GVfrvTJsgrzWPwlHAr5i-188" target="GVfrvTJsgrzWPwlHAr5i-196">
          <mxGeometry relative="1" as="geometry" />
        </mxCell>
        <mxCell id="GVfrvTJsgrzWPwlHAr5i-188" value="validate data&amp;nbsp;" style="rounded=1;whiteSpace=wrap;html=1;" vertex="1" parent="GVfrvTJsgrzWPwlHAr5i-143">
          <mxGeometry x="20" y="388" width="85" height="30" as="geometry" />
        </mxCell>
        <mxCell id="GVfrvTJsgrzWPwlHAr5i-192" value="display succes toast message" style="rounded=1;whiteSpace=wrap;html=1;" vertex="1" parent="GVfrvTJsgrzWPwlHAr5i-143">
          <mxGeometry x="97.5" y="500" width="90" height="30" as="geometry" />
        </mxCell>
        <mxCell id="GVfrvTJsgrzWPwlHAr5i-200" style="edgeStyle=orthogonalEdgeStyle;shape=connector;rounded=0;orthogonalLoop=1;jettySize=auto;html=1;exitX=0.5;exitY=1;exitDx=0;exitDy=0;entryX=1;entryY=0.5;entryDx=0;entryDy=0;strokeColor=default;align=center;verticalAlign=middle;fontFamily=Helvetica;fontSize=11;fontColor=default;labelBackgroundColor=default;endArrow=open;endFill=0;" edge="1" parent="GVfrvTJsgrzWPwlHAr5i-143" source="GVfrvTJsgrzWPwlHAr5i-196" target="GVfrvTJsgrzWPwlHAr5i-198">
          <mxGeometry relative="1" as="geometry" />
        </mxCell>
        <mxCell id="GVfrvTJsgrzWPwlHAr5i-201" value="[invalid]" style="edgeLabel;html=1;align=center;verticalAlign=middle;resizable=0;points=[];fontFamily=Helvetica;fontSize=11;fontColor=default;labelBackgroundColor=default;" vertex="1" connectable="0" parent="GVfrvTJsgrzWPwlHAr5i-200">
          <mxGeometry x="-0.7156" y="-1" relative="1" as="geometry">
            <mxPoint x="21" y="12" as="offset" />
          </mxGeometry>
        </mxCell>
        <mxCell id="GVfrvTJsgrzWPwlHAr5i-196" value="" style="rhombus;fontFamily=Helvetica;fontSize=11;fontColor=default;labelBackgroundColor=default;" vertex="1" parent="GVfrvTJsgrzWPwlHAr5i-143">
          <mxGeometry x="126.99999999999955" y="388" width="30" height="30" as="geometry" />
        </mxCell>
        <mxCell id="GVfrvTJsgrzWPwlHAr5i-198" value="display error toast message" style="rounded=1;whiteSpace=wrap;html=1;" vertex="1" parent="GVfrvTJsgrzWPwlHAr5i-143">
          <mxGeometry x="17.5" y="450" width="90" height="30" as="geometry" />
        </mxCell>
        <mxCell id="GVfrvTJsgrzWPwlHAr5i-144" value="DB" style="swimlane;startSize=20;html=1;" vertex="1" parent="GVfrvTJsgrzWPwlHAr5i-141">
          <mxGeometry x="370" y="20" width="120" height="590" as="geometry" />
        </mxCell>
        <mxCell id="GVfrvTJsgrzWPwlHAr5i-164" value="selecet Lists" style="rounded=1;whiteSpace=wrap;html=1;" vertex="1" parent="GVfrvTJsgrzWPwlHAr5i-144">
          <mxGeometry x="20" y="110" width="90" height="30" as="geometry" />
        </mxCell>
        <mxCell id="GVfrvTJsgrzWPwlHAr5i-171" value="" style="rhombus;fontFamily=Helvetica;fontSize=11;fontColor=default;labelBackgroundColor=default;" vertex="1" parent="GVfrvTJsgrzWPwlHAr5i-144">
          <mxGeometry x="49.999999999999545" y="200" width="30" height="30" as="geometry" />
        </mxCell>
        <mxCell id="GVfrvTJsgrzWPwlHAr5i-169" style="edgeStyle=orthogonalEdgeStyle;shape=connector;rounded=0;orthogonalLoop=1;jettySize=auto;html=1;exitX=0.5;exitY=1;exitDx=0;exitDy=0;entryX=0.5;entryY=0;entryDx=0;entryDy=0;strokeColor=default;align=center;verticalAlign=middle;fontFamily=Helvetica;fontSize=11;fontColor=default;labelBackgroundColor=default;endArrow=open;endFill=0;" edge="1" parent="GVfrvTJsgrzWPwlHAr5i-144" source="GVfrvTJsgrzWPwlHAr5i-164" target="GVfrvTJsgrzWPwlHAr5i-171">
          <mxGeometry relative="1" as="geometry" />
        </mxCell>
        <mxCell id="GVfrvTJsgrzWPwlHAr5i-190" value="insert data" style="rounded=1;whiteSpace=wrap;html=1;" vertex="1" parent="GVfrvTJsgrzWPwlHAr5i-144">
          <mxGeometry x="15" y="388" width="90" height="30" as="geometry" />
        </mxCell>
        <mxCell id="GVfrvTJsgrzWPwlHAr5i-159" value="" style="edgeStyle=orthogonalEdgeStyle;shape=connector;rounded=0;orthogonalLoop=1;jettySize=auto;html=1;strokeColor=default;align=center;verticalAlign=middle;fontFamily=Helvetica;fontSize=11;fontColor=default;labelBackgroundColor=default;endArrow=open;endFill=0;entryX=0;entryY=0.5;entryDx=0;entryDy=0;" edge="1" parent="GVfrvTJsgrzWPwlHAr5i-141" source="GVfrvTJsgrzWPwlHAr5i-156" target="GVfrvTJsgrzWPwlHAr5i-158">
          <mxGeometry relative="1" as="geometry" />
        </mxCell>
        <mxCell id="GVfrvTJsgrzWPwlHAr5i-167" style="edgeStyle=orthogonalEdgeStyle;shape=connector;rounded=0;orthogonalLoop=1;jettySize=auto;html=1;exitX=1;exitY=0.5;exitDx=0;exitDy=0;entryX=0;entryY=0.5;entryDx=0;entryDy=0;strokeColor=default;align=center;verticalAlign=middle;fontFamily=Helvetica;fontSize=11;fontColor=default;labelBackgroundColor=default;endArrow=open;endFill=0;" edge="1" parent="GVfrvTJsgrzWPwlHAr5i-141" source="GVfrvTJsgrzWPwlHAr5i-165" target="GVfrvTJsgrzWPwlHAr5i-164">
          <mxGeometry relative="1" as="geometry" />
        </mxCell>
        <mxCell id="GVfrvTJsgrzWPwlHAr5i-172" style="edgeStyle=orthogonalEdgeStyle;shape=connector;rounded=0;orthogonalLoop=1;jettySize=auto;html=1;exitX=0;exitY=0.5;exitDx=0;exitDy=0;entryX=1;entryY=0.5;entryDx=0;entryDy=0;strokeColor=default;align=center;verticalAlign=middle;fontFamily=Helvetica;fontSize=11;fontColor=default;labelBackgroundColor=default;endArrow=open;endFill=0;" edge="1" parent="GVfrvTJsgrzWPwlHAr5i-141" source="GVfrvTJsgrzWPwlHAr5i-171" target="GVfrvTJsgrzWPwlHAr5i-168">
          <mxGeometry relative="1" as="geometry">
            <Array as="points">
              <mxPoint x="350" y="235" />
              <mxPoint x="350" y="204" />
            </Array>
          </mxGeometry>
        </mxCell>
        <mxCell id="GVfrvTJsgrzWPwlHAr5i-173" value="[result exist]" style="edgeLabel;html=1;align=center;verticalAlign=middle;resizable=0;points=[];fontFamily=Helvetica;fontSize=11;fontColor=default;labelBackgroundColor=default;" vertex="1" connectable="0" parent="GVfrvTJsgrzWPwlHAr5i-172">
          <mxGeometry x="-0.7682" y="-1" relative="1" as="geometry">
            <mxPoint x="-10" y="-14" as="offset" />
          </mxGeometry>
        </mxCell>
        <mxCell id="GVfrvTJsgrzWPwlHAr5i-175" style="edgeStyle=orthogonalEdgeStyle;shape=connector;rounded=0;orthogonalLoop=1;jettySize=auto;html=1;exitX=0.5;exitY=1;exitDx=0;exitDy=0;entryX=1;entryY=0.5;entryDx=0;entryDy=0;strokeColor=default;align=center;verticalAlign=middle;fontFamily=Helvetica;fontSize=11;fontColor=default;labelBackgroundColor=default;endArrow=open;endFill=0;" edge="1" parent="GVfrvTJsgrzWPwlHAr5i-141" source="GVfrvTJsgrzWPwlHAr5i-171" target="GVfrvTJsgrzWPwlHAr5i-174">
          <mxGeometry relative="1" as="geometry" />
        </mxCell>
        <mxCell id="GVfrvTJsgrzWPwlHAr5i-177" value="[empty result]" style="edgeLabel;html=1;align=center;verticalAlign=middle;resizable=0;points=[];fontFamily=Helvetica;fontSize=11;fontColor=default;labelBackgroundColor=default;" vertex="1" connectable="0" parent="GVfrvTJsgrzWPwlHAr5i-175">
          <mxGeometry x="-0.1668" y="-2" relative="1" as="geometry">
            <mxPoint x="-8" y="12" as="offset" />
          </mxGeometry>
        </mxCell>
        <mxCell id="GVfrvTJsgrzWPwlHAr5i-181" style="edgeStyle=orthogonalEdgeStyle;shape=connector;rounded=0;orthogonalLoop=1;jettySize=auto;html=1;exitX=0;exitY=0.5;exitDx=0;exitDy=0;entryX=1;entryY=0.5;entryDx=0;entryDy=0;strokeColor=default;align=center;verticalAlign=middle;fontFamily=Helvetica;fontSize=11;fontColor=default;labelBackgroundColor=default;endArrow=open;endFill=0;" edge="1" parent="GVfrvTJsgrzWPwlHAr5i-141" source="GVfrvTJsgrzWPwlHAr5i-178" target="GVfrvTJsgrzWPwlHAr5i-170">
          <mxGeometry relative="1" as="geometry" />
        </mxCell>
        <mxCell id="GVfrvTJsgrzWPwlHAr5i-185" style="edgeStyle=orthogonalEdgeStyle;shape=connector;rounded=0;orthogonalLoop=1;jettySize=auto;html=1;exitX=1;exitY=0.5;exitDx=0;exitDy=0;entryX=0;entryY=0.5;entryDx=0;entryDy=0;strokeColor=default;align=center;verticalAlign=middle;fontFamily=Helvetica;fontSize=11;fontColor=default;labelBackgroundColor=default;endArrow=open;endFill=0;" edge="1" parent="GVfrvTJsgrzWPwlHAr5i-141" source="GVfrvTJsgrzWPwlHAr5i-182" target="GVfrvTJsgrzWPwlHAr5i-184">
          <mxGeometry relative="1" as="geometry" />
        </mxCell>
        <mxCell id="GVfrvTJsgrzWPwlHAr5i-187" style="edgeStyle=orthogonalEdgeStyle;shape=connector;rounded=0;orthogonalLoop=1;jettySize=auto;html=1;exitX=0.5;exitY=1;exitDx=0;exitDy=0;entryX=1;entryY=0.5;entryDx=0;entryDy=0;strokeColor=default;align=center;verticalAlign=middle;fontFamily=Helvetica;fontSize=11;fontColor=default;labelBackgroundColor=default;endArrow=open;endFill=0;" edge="1" parent="GVfrvTJsgrzWPwlHAr5i-141" source="GVfrvTJsgrzWPwlHAr5i-184" target="GVfrvTJsgrzWPwlHAr5i-186">
          <mxGeometry relative="1" as="geometry" />
        </mxCell>
        <mxCell id="GVfrvTJsgrzWPwlHAr5i-189" style="edgeStyle=orthogonalEdgeStyle;shape=connector;rounded=0;orthogonalLoop=1;jettySize=auto;html=1;exitX=0.5;exitY=1;exitDx=0;exitDy=0;strokeColor=default;align=center;verticalAlign=middle;fontFamily=Helvetica;fontSize=11;fontColor=default;labelBackgroundColor=default;endArrow=open;endFill=0;entryX=0;entryY=0.5;entryDx=0;entryDy=0;" edge="1" parent="GVfrvTJsgrzWPwlHAr5i-141" source="GVfrvTJsgrzWPwlHAr5i-186" target="GVfrvTJsgrzWPwlHAr5i-188">
          <mxGeometry relative="1" as="geometry">
            <mxPoint x="209.99999999999955" y="430" as="targetPoint" />
          </mxGeometry>
        </mxCell>
        <mxCell id="GVfrvTJsgrzWPwlHAr5i-199" style="edgeStyle=orthogonalEdgeStyle;shape=connector;rounded=0;orthogonalLoop=1;jettySize=auto;html=1;exitX=0.5;exitY=1;exitDx=0;exitDy=0;entryX=1;entryY=0.5;entryDx=0;entryDy=0;strokeColor=default;align=center;verticalAlign=middle;fontFamily=Helvetica;fontSize=11;fontColor=default;labelBackgroundColor=default;endArrow=open;endFill=0;" edge="1" parent="GVfrvTJsgrzWPwlHAr5i-141" source="GVfrvTJsgrzWPwlHAr5i-190" target="GVfrvTJsgrzWPwlHAr5i-192">
          <mxGeometry relative="1" as="geometry" />
        </mxCell>
        <mxCell id="GVfrvTJsgrzWPwlHAr5i-202" style="edgeStyle=orthogonalEdgeStyle;shape=connector;rounded=0;orthogonalLoop=1;jettySize=auto;html=1;exitX=1;exitY=0.5;exitDx=0;exitDy=0;entryX=0;entryY=0.5;entryDx=0;entryDy=0;strokeColor=default;align=center;verticalAlign=middle;fontFamily=Helvetica;fontSize=11;fontColor=default;labelBackgroundColor=default;endArrow=open;endFill=0;" edge="1" parent="GVfrvTJsgrzWPwlHAr5i-141" source="GVfrvTJsgrzWPwlHAr5i-196" target="GVfrvTJsgrzWPwlHAr5i-190">
          <mxGeometry relative="1" as="geometry" />
        </mxCell>
        <mxCell id="GVfrvTJsgrzWPwlHAr5i-203" value="[valid]" style="edgeLabel;html=1;align=center;verticalAlign=middle;resizable=0;points=[];fontFamily=Helvetica;fontSize=11;fontColor=default;labelBackgroundColor=default;" vertex="1" connectable="0" parent="GVfrvTJsgrzWPwlHAr5i-202">
          <mxGeometry x="-0.2872" y="1" relative="1" as="geometry">
            <mxPoint y="-10" as="offset" />
          </mxGeometry>
        </mxCell>
        <mxCell id="GVfrvTJsgrzWPwlHAr5i-204" style="edgeStyle=orthogonalEdgeStyle;shape=connector;rounded=0;orthogonalLoop=1;jettySize=auto;html=1;exitX=0;exitY=0.5;exitDx=0;exitDy=0;entryX=0;entryY=0.5;entryDx=0;entryDy=0;strokeColor=default;align=center;verticalAlign=middle;fontFamily=Helvetica;fontSize=11;fontColor=default;labelBackgroundColor=default;endArrow=open;endFill=0;" edge="1" parent="GVfrvTJsgrzWPwlHAr5i-141" source="GVfrvTJsgrzWPwlHAr5i-198" target="GVfrvTJsgrzWPwlHAr5i-186">
          <mxGeometry relative="1" as="geometry" />
        </mxCell>
        <mxCell id="GVfrvTJsgrzWPwlHAr5i-206" style="edgeStyle=orthogonalEdgeStyle;shape=connector;rounded=0;orthogonalLoop=1;jettySize=auto;html=1;exitX=0;exitY=0.5;exitDx=0;exitDy=0;entryX=1;entryY=0.5;entryDx=0;entryDy=0;strokeColor=default;align=center;verticalAlign=middle;fontFamily=Helvetica;fontSize=11;fontColor=default;labelBackgroundColor=default;endArrow=open;endFill=0;" edge="1" parent="GVfrvTJsgrzWPwlHAr5i-141" source="GVfrvTJsgrzWPwlHAr5i-192" target="GVfrvTJsgrzWPwlHAr5i-207">
          <mxGeometry relative="1" as="geometry" />
        </mxCell>
        <mxCell id="GVfrvTJsgrzWPwlHAr5i-209" value="&lt;b&gt;&lt;font face=&quot;Verdana&quot; style=&quot;font-size: 30px;&quot;&gt;List Activities&lt;/font&gt;&lt;/b&gt;" style="text;html=1;align=center;verticalAlign=middle;whiteSpace=wrap;rounded=0;fontFamily=Helvetica;fontSize=11;fontColor=default;labelBackgroundColor=none;" vertex="1" parent="GVfrvTJsgrzWPwlHAr5i-268">
          <mxGeometry x="413.99999999999955" width="262" height="30" as="geometry" />
        </mxCell>
        <mxCell id="GVfrvTJsgrzWPwlHAr5i-210" value="" style="endArrow=none;html=1;rounded=0;strokeColor=default;align=center;verticalAlign=middle;fontFamily=Helvetica;fontSize=11;fontColor=default;labelBackgroundColor=default;edgeStyle=orthogonalEdgeStyle;entryX=1;entryY=1;entryDx=0;entryDy=0;exitX=0;exitY=1;exitDx=0;exitDy=0;strokeWidth=2;" edge="1" parent="GVfrvTJsgrzWPwlHAr5i-268" source="GVfrvTJsgrzWPwlHAr5i-209" target="GVfrvTJsgrzWPwlHAr5i-209">
          <mxGeometry width="50" height="50" relative="1" as="geometry">
            <mxPoint x="79.99999999999955" y="30" as="sourcePoint" />
            <mxPoint x="129.99999999999955" y="-20" as="targetPoint" />
          </mxGeometry>
        </mxCell>
        <mxCell id="GVfrvTJsgrzWPwlHAr5i-211" value="Edit List" style="swimlane;childLayout=stackLayout;resizeParent=1;resizeParentMax=0;startSize=20;html=1;" vertex="1" parent="GVfrvTJsgrzWPwlHAr5i-268">
          <mxGeometry x="590" y="79" width="490" height="610" as="geometry" />
        </mxCell>
        <mxCell id="GVfrvTJsgrzWPwlHAr5i-212" value="User" style="swimlane;startSize=20;html=1;" vertex="1" parent="GVfrvTJsgrzWPwlHAr5i-211">
          <mxGeometry y="20" width="170" height="590" as="geometry" />
        </mxCell>
        <mxCell id="GVfrvTJsgrzWPwlHAr5i-213" value="" style="ellipse;html=1;shape=startState;fillColor=#000000;strokeColor=#ff0000;" vertex="1" parent="GVfrvTJsgrzWPwlHAr5i-212">
          <mxGeometry x="44.999999999999545" y="40" width="30" height="30" as="geometry" />
        </mxCell>
        <mxCell id="GVfrvTJsgrzWPwlHAr5i-214" value="" style="edgeStyle=orthogonalEdgeStyle;html=1;verticalAlign=bottom;endArrow=open;endSize=8;strokeColor=#ff0000;rounded=0;entryX=0.5;entryY=0;entryDx=0;entryDy=0;" edge="1" parent="GVfrvTJsgrzWPwlHAr5i-212" source="GVfrvTJsgrzWPwlHAr5i-213" target="GVfrvTJsgrzWPwlHAr5i-216">
          <mxGeometry relative="1" as="geometry">
            <mxPoint x="59.999999999999545" y="90" as="targetPoint" />
          </mxGeometry>
        </mxCell>
        <mxCell id="GVfrvTJsgrzWPwlHAr5i-215" style="edgeStyle=orthogonalEdgeStyle;rounded=0;orthogonalLoop=1;jettySize=auto;html=1;exitX=0.5;exitY=1;exitDx=0;exitDy=0;entryX=0.5;entryY=0;entryDx=0;entryDy=0;endArrow=open;endFill=0;" edge="1" parent="GVfrvTJsgrzWPwlHAr5i-212" source="GVfrvTJsgrzWPwlHAr5i-216" target="GVfrvTJsgrzWPwlHAr5i-217">
          <mxGeometry relative="1" as="geometry" />
        </mxCell>
        <mxCell id="GVfrvTJsgrzWPwlHAr5i-216" value="got to menu" style="rounded=1;whiteSpace=wrap;html=1;" vertex="1" parent="GVfrvTJsgrzWPwlHAr5i-212">
          <mxGeometry x="20" y="100" width="80" height="30" as="geometry" />
        </mxCell>
        <mxCell id="GVfrvTJsgrzWPwlHAr5i-217" value="click on &lt;br&gt;my Lists" style="rounded=1;whiteSpace=wrap;html=1;" vertex="1" parent="GVfrvTJsgrzWPwlHAr5i-212">
          <mxGeometry x="20" y="150" width="80" height="30" as="geometry" />
        </mxCell>
        <mxCell id="GVfrvTJsgrzWPwlHAr5i-218" value="" style="edgeStyle=orthogonalEdgeStyle;shape=connector;rounded=0;orthogonalLoop=1;jettySize=auto;html=1;strokeColor=default;align=center;verticalAlign=middle;fontFamily=Helvetica;fontSize=11;fontColor=default;labelBackgroundColor=default;endArrow=open;endFill=0;" edge="1" parent="GVfrvTJsgrzWPwlHAr5i-212" source="GVfrvTJsgrzWPwlHAr5i-219" target="GVfrvTJsgrzWPwlHAr5i-220">
          <mxGeometry relative="1" as="geometry" />
        </mxCell>
        <mxCell id="GVfrvTJsgrzWPwlHAr5i-219" value="display result" style="rounded=1;whiteSpace=wrap;html=1;" vertex="1" parent="GVfrvTJsgrzWPwlHAr5i-212">
          <mxGeometry x="30" y="204" width="90" height="30" as="geometry" />
        </mxCell>
        <mxCell id="GVfrvTJsgrzWPwlHAr5i-220" value="click on &lt;br&gt;edit Button &lt;br&gt;from subMenu" style="rounded=1;whiteSpace=wrap;html=1;" vertex="1" parent="GVfrvTJsgrzWPwlHAr5i-212">
          <mxGeometry x="30" y="280" width="90" height="50" as="geometry" />
        </mxCell>
        <mxCell id="GVfrvTJsgrzWPwlHAr5i-221" value="update &lt;br&gt;Form data" style="rounded=1;whiteSpace=wrap;html=1;" vertex="1" parent="GVfrvTJsgrzWPwlHAr5i-212">
          <mxGeometry x="30" y="340" width="90" height="30" as="geometry" />
        </mxCell>
        <mxCell id="GVfrvTJsgrzWPwlHAr5i-222" value="" style="ellipse;html=1;shape=endState;fillColor=#000000;strokeColor=#ff0000;fontFamily=Helvetica;fontSize=11;fontColor=default;labelBackgroundColor=default;" vertex="1" parent="GVfrvTJsgrzWPwlHAr5i-212">
          <mxGeometry x="74.99999999999955" y="550" width="30" height="30" as="geometry" />
        </mxCell>
        <mxCell id="GVfrvTJsgrzWPwlHAr5i-223" style="edgeStyle=orthogonalEdgeStyle;shape=connector;rounded=0;orthogonalLoop=1;jettySize=auto;html=1;exitX=0.5;exitY=1;exitDx=0;exitDy=0;entryX=0.5;entryY=0;entryDx=0;entryDy=0;strokeColor=default;align=center;verticalAlign=middle;fontFamily=Helvetica;fontSize=11;fontColor=default;labelBackgroundColor=default;endArrow=open;endFill=0;" edge="1" parent="GVfrvTJsgrzWPwlHAr5i-212" source="GVfrvTJsgrzWPwlHAr5i-224" target="GVfrvTJsgrzWPwlHAr5i-222">
          <mxGeometry relative="1" as="geometry" />
        </mxCell>
        <mxCell id="GVfrvTJsgrzWPwlHAr5i-224" value="go to My Lists" style="rounded=1;whiteSpace=wrap;html=1;" vertex="1" parent="GVfrvTJsgrzWPwlHAr5i-212">
          <mxGeometry x="45" y="500" width="90" height="30" as="geometry" />
        </mxCell>
        <mxCell id="GVfrvTJsgrzWPwlHAr5i-225" value="App" style="swimlane;startSize=20;html=1;" vertex="1" parent="GVfrvTJsgrzWPwlHAr5i-211">
          <mxGeometry x="170" y="20" width="200" height="590" as="geometry" />
        </mxCell>
        <mxCell id="GVfrvTJsgrzWPwlHAr5i-226" style="edgeStyle=orthogonalEdgeStyle;shape=connector;rounded=0;orthogonalLoop=1;jettySize=auto;html=1;exitX=0.5;exitY=1;exitDx=0;exitDy=0;entryX=0.5;entryY=0;entryDx=0;entryDy=0;strokeColor=default;align=center;verticalAlign=middle;fontFamily=Helvetica;fontSize=11;fontColor=default;labelBackgroundColor=default;endArrow=open;endFill=0;" edge="1" parent="GVfrvTJsgrzWPwlHAr5i-225" source="GVfrvTJsgrzWPwlHAr5i-227" target="GVfrvTJsgrzWPwlHAr5i-228">
          <mxGeometry relative="1" as="geometry" />
        </mxCell>
        <mxCell id="GVfrvTJsgrzWPwlHAr5i-227" value="go to My Lists" style="rounded=1;whiteSpace=wrap;html=1;" vertex="1" parent="GVfrvTJsgrzWPwlHAr5i-225">
          <mxGeometry x="45" y="60" width="90" height="30" as="geometry" />
        </mxCell>
        <mxCell id="GVfrvTJsgrzWPwlHAr5i-228" value="get Lists" style="rounded=1;whiteSpace=wrap;html=1;" vertex="1" parent="GVfrvTJsgrzWPwlHAr5i-225">
          <mxGeometry x="45" y="110" width="90" height="30" as="geometry" />
        </mxCell>
        <mxCell id="GVfrvTJsgrzWPwlHAr5i-229" value="set Lists in component" style="rounded=1;whiteSpace=wrap;html=1;" vertex="1" parent="GVfrvTJsgrzWPwlHAr5i-225">
          <mxGeometry x="67" y="169" width="90" height="30" as="geometry" />
        </mxCell>
        <mxCell id="GVfrvTJsgrzWPwlHAr5i-230" value="set empty message in component" style="rounded=1;whiteSpace=wrap;html=1;" vertex="1" parent="GVfrvTJsgrzWPwlHAr5i-225">
          <mxGeometry x="60" y="239" width="115" height="30" as="geometry" />
        </mxCell>
        <mxCell id="GVfrvTJsgrzWPwlHAr5i-231" value="" style="rhombus;fontFamily=Helvetica;fontSize=11;fontColor=default;labelBackgroundColor=default;" vertex="1" parent="GVfrvTJsgrzWPwlHAr5i-225">
          <mxGeometry x="-4.547473508864641e-13" y="204" width="30" height="30" as="geometry" />
        </mxCell>
        <mxCell id="GVfrvTJsgrzWPwlHAr5i-232" style="edgeStyle=orthogonalEdgeStyle;shape=connector;rounded=0;orthogonalLoop=1;jettySize=auto;html=1;exitX=0;exitY=0.5;exitDx=0;exitDy=0;entryX=0.5;entryY=1;entryDx=0;entryDy=0;strokeColor=default;align=center;verticalAlign=middle;fontFamily=Helvetica;fontSize=11;fontColor=default;labelBackgroundColor=default;endArrow=open;endFill=0;" edge="1" parent="GVfrvTJsgrzWPwlHAr5i-225" source="GVfrvTJsgrzWPwlHAr5i-230" target="GVfrvTJsgrzWPwlHAr5i-231">
          <mxGeometry relative="1" as="geometry" />
        </mxCell>
        <mxCell id="GVfrvTJsgrzWPwlHAr5i-233" style="edgeStyle=orthogonalEdgeStyle;shape=connector;rounded=0;orthogonalLoop=1;jettySize=auto;html=1;exitX=0;exitY=0.5;exitDx=0;exitDy=0;entryX=0.5;entryY=0;entryDx=0;entryDy=0;strokeColor=default;align=center;verticalAlign=middle;fontFamily=Helvetica;fontSize=11;fontColor=default;labelBackgroundColor=default;endArrow=open;endFill=0;" edge="1" parent="GVfrvTJsgrzWPwlHAr5i-225" source="GVfrvTJsgrzWPwlHAr5i-229" target="GVfrvTJsgrzWPwlHAr5i-231">
          <mxGeometry relative="1" as="geometry" />
        </mxCell>
        <mxCell id="GVfrvTJsgrzWPwlHAr5i-234" value="go to Edit List Component" style="rounded=1;whiteSpace=wrap;html=1;" vertex="1" parent="GVfrvTJsgrzWPwlHAr5i-225">
          <mxGeometry x="45" y="290" width="90" height="30" as="geometry" />
        </mxCell>
        <mxCell id="GVfrvTJsgrzWPwlHAr5i-235" style="edgeStyle=orthogonalEdgeStyle;shape=connector;rounded=0;orthogonalLoop=1;jettySize=auto;html=1;exitX=1;exitY=0.5;exitDx=0;exitDy=0;entryX=0;entryY=0.5;entryDx=0;entryDy=0;strokeColor=default;align=center;verticalAlign=middle;fontFamily=Helvetica;fontSize=11;fontColor=default;labelBackgroundColor=default;endArrow=open;endFill=0;" edge="1" parent="GVfrvTJsgrzWPwlHAr5i-225" source="GVfrvTJsgrzWPwlHAr5i-236" target="GVfrvTJsgrzWPwlHAr5i-240">
          <mxGeometry relative="1" as="geometry" />
        </mxCell>
        <mxCell id="GVfrvTJsgrzWPwlHAr5i-236" value="validate data&amp;nbsp;" style="rounded=1;whiteSpace=wrap;html=1;" vertex="1" parent="GVfrvTJsgrzWPwlHAr5i-225">
          <mxGeometry x="20" y="388" width="85" height="30" as="geometry" />
        </mxCell>
        <mxCell id="GVfrvTJsgrzWPwlHAr5i-237" value="display succes toast message" style="rounded=1;whiteSpace=wrap;html=1;" vertex="1" parent="GVfrvTJsgrzWPwlHAr5i-225">
          <mxGeometry x="97.5" y="500" width="90" height="30" as="geometry" />
        </mxCell>
        <mxCell id="GVfrvTJsgrzWPwlHAr5i-238" style="edgeStyle=orthogonalEdgeStyle;shape=connector;rounded=0;orthogonalLoop=1;jettySize=auto;html=1;exitX=0.5;exitY=1;exitDx=0;exitDy=0;entryX=1;entryY=0.5;entryDx=0;entryDy=0;strokeColor=default;align=center;verticalAlign=middle;fontFamily=Helvetica;fontSize=11;fontColor=default;labelBackgroundColor=default;endArrow=open;endFill=0;" edge="1" parent="GVfrvTJsgrzWPwlHAr5i-225" source="GVfrvTJsgrzWPwlHAr5i-240" target="GVfrvTJsgrzWPwlHAr5i-241">
          <mxGeometry relative="1" as="geometry" />
        </mxCell>
        <mxCell id="GVfrvTJsgrzWPwlHAr5i-239" value="[invalid]" style="edgeLabel;html=1;align=center;verticalAlign=middle;resizable=0;points=[];fontFamily=Helvetica;fontSize=11;fontColor=default;labelBackgroundColor=default;" vertex="1" connectable="0" parent="GVfrvTJsgrzWPwlHAr5i-238">
          <mxGeometry x="-0.7156" y="-1" relative="1" as="geometry">
            <mxPoint x="21" y="12" as="offset" />
          </mxGeometry>
        </mxCell>
        <mxCell id="GVfrvTJsgrzWPwlHAr5i-240" value="" style="rhombus;fontFamily=Helvetica;fontSize=11;fontColor=default;labelBackgroundColor=default;" vertex="1" parent="GVfrvTJsgrzWPwlHAr5i-225">
          <mxGeometry x="126.99999999999955" y="388" width="30" height="30" as="geometry" />
        </mxCell>
        <mxCell id="GVfrvTJsgrzWPwlHAr5i-241" value="display error toast message" style="rounded=1;whiteSpace=wrap;html=1;" vertex="1" parent="GVfrvTJsgrzWPwlHAr5i-225">
          <mxGeometry x="17.5" y="450" width="90" height="30" as="geometry" />
        </mxCell>
        <mxCell id="GVfrvTJsgrzWPwlHAr5i-264" value="Fill Form" style="rounded=1;whiteSpace=wrap;html=1;" vertex="1" parent="GVfrvTJsgrzWPwlHAr5i-225">
          <mxGeometry x="55" y="340" width="90" height="30" as="geometry" />
        </mxCell>
        <mxCell id="GVfrvTJsgrzWPwlHAr5i-242" value="DB" style="swimlane;startSize=20;html=1;" vertex="1" parent="GVfrvTJsgrzWPwlHAr5i-211">
          <mxGeometry x="370" y="20" width="120" height="590" as="geometry" />
        </mxCell>
        <mxCell id="GVfrvTJsgrzWPwlHAr5i-243" value="selecet Lists" style="rounded=1;whiteSpace=wrap;html=1;" vertex="1" parent="GVfrvTJsgrzWPwlHAr5i-242">
          <mxGeometry x="20" y="110" width="90" height="30" as="geometry" />
        </mxCell>
        <mxCell id="GVfrvTJsgrzWPwlHAr5i-244" value="" style="rhombus;fontFamily=Helvetica;fontSize=11;fontColor=default;labelBackgroundColor=default;" vertex="1" parent="GVfrvTJsgrzWPwlHAr5i-242">
          <mxGeometry x="49.999999999999545" y="200" width="30" height="30" as="geometry" />
        </mxCell>
        <mxCell id="GVfrvTJsgrzWPwlHAr5i-245" style="edgeStyle=orthogonalEdgeStyle;shape=connector;rounded=0;orthogonalLoop=1;jettySize=auto;html=1;exitX=0.5;exitY=1;exitDx=0;exitDy=0;entryX=0.5;entryY=0;entryDx=0;entryDy=0;strokeColor=default;align=center;verticalAlign=middle;fontFamily=Helvetica;fontSize=11;fontColor=default;labelBackgroundColor=default;endArrow=open;endFill=0;" edge="1" parent="GVfrvTJsgrzWPwlHAr5i-242" source="GVfrvTJsgrzWPwlHAr5i-243" target="GVfrvTJsgrzWPwlHAr5i-244">
          <mxGeometry relative="1" as="geometry" />
        </mxCell>
        <mxCell id="GVfrvTJsgrzWPwlHAr5i-246" value="update data" style="rounded=1;whiteSpace=wrap;html=1;" vertex="1" parent="GVfrvTJsgrzWPwlHAr5i-242">
          <mxGeometry x="15" y="388" width="90" height="30" as="geometry" />
        </mxCell>
        <mxCell id="GVfrvTJsgrzWPwlHAr5i-262" value="selecet Lists" style="rounded=1;whiteSpace=wrap;html=1;" vertex="1" parent="GVfrvTJsgrzWPwlHAr5i-242">
          <mxGeometry x="15" y="290" width="90" height="30" as="geometry" />
        </mxCell>
        <mxCell id="GVfrvTJsgrzWPwlHAr5i-247" value="" style="edgeStyle=orthogonalEdgeStyle;shape=connector;rounded=0;orthogonalLoop=1;jettySize=auto;html=1;strokeColor=default;align=center;verticalAlign=middle;fontFamily=Helvetica;fontSize=11;fontColor=default;labelBackgroundColor=default;endArrow=open;endFill=0;entryX=0;entryY=0.5;entryDx=0;entryDy=0;" edge="1" parent="GVfrvTJsgrzWPwlHAr5i-211" source="GVfrvTJsgrzWPwlHAr5i-217" target="GVfrvTJsgrzWPwlHAr5i-227">
          <mxGeometry relative="1" as="geometry" />
        </mxCell>
        <mxCell id="GVfrvTJsgrzWPwlHAr5i-248" style="edgeStyle=orthogonalEdgeStyle;shape=connector;rounded=0;orthogonalLoop=1;jettySize=auto;html=1;exitX=1;exitY=0.5;exitDx=0;exitDy=0;entryX=0;entryY=0.5;entryDx=0;entryDy=0;strokeColor=default;align=center;verticalAlign=middle;fontFamily=Helvetica;fontSize=11;fontColor=default;labelBackgroundColor=default;endArrow=open;endFill=0;" edge="1" parent="GVfrvTJsgrzWPwlHAr5i-211" source="GVfrvTJsgrzWPwlHAr5i-228" target="GVfrvTJsgrzWPwlHAr5i-243">
          <mxGeometry relative="1" as="geometry" />
        </mxCell>
        <mxCell id="GVfrvTJsgrzWPwlHAr5i-249" style="edgeStyle=orthogonalEdgeStyle;shape=connector;rounded=0;orthogonalLoop=1;jettySize=auto;html=1;exitX=0;exitY=0.5;exitDx=0;exitDy=0;entryX=1;entryY=0.5;entryDx=0;entryDy=0;strokeColor=default;align=center;verticalAlign=middle;fontFamily=Helvetica;fontSize=11;fontColor=default;labelBackgroundColor=default;endArrow=open;endFill=0;" edge="1" parent="GVfrvTJsgrzWPwlHAr5i-211" source="GVfrvTJsgrzWPwlHAr5i-244" target="GVfrvTJsgrzWPwlHAr5i-229">
          <mxGeometry relative="1" as="geometry">
            <Array as="points">
              <mxPoint x="350" y="235" />
              <mxPoint x="350" y="204" />
            </Array>
          </mxGeometry>
        </mxCell>
        <mxCell id="GVfrvTJsgrzWPwlHAr5i-250" value="[result exist]" style="edgeLabel;html=1;align=center;verticalAlign=middle;resizable=0;points=[];fontFamily=Helvetica;fontSize=11;fontColor=default;labelBackgroundColor=default;" vertex="1" connectable="0" parent="GVfrvTJsgrzWPwlHAr5i-249">
          <mxGeometry x="-0.7682" y="-1" relative="1" as="geometry">
            <mxPoint x="-10" y="-14" as="offset" />
          </mxGeometry>
        </mxCell>
        <mxCell id="GVfrvTJsgrzWPwlHAr5i-251" style="edgeStyle=orthogonalEdgeStyle;shape=connector;rounded=0;orthogonalLoop=1;jettySize=auto;html=1;exitX=0.5;exitY=1;exitDx=0;exitDy=0;entryX=1;entryY=0.5;entryDx=0;entryDy=0;strokeColor=default;align=center;verticalAlign=middle;fontFamily=Helvetica;fontSize=11;fontColor=default;labelBackgroundColor=default;endArrow=open;endFill=0;" edge="1" parent="GVfrvTJsgrzWPwlHAr5i-211" source="GVfrvTJsgrzWPwlHAr5i-244" target="GVfrvTJsgrzWPwlHAr5i-230">
          <mxGeometry relative="1" as="geometry" />
        </mxCell>
        <mxCell id="GVfrvTJsgrzWPwlHAr5i-252" value="[empty result]" style="edgeLabel;html=1;align=center;verticalAlign=middle;resizable=0;points=[];fontFamily=Helvetica;fontSize=11;fontColor=default;labelBackgroundColor=default;" vertex="1" connectable="0" parent="GVfrvTJsgrzWPwlHAr5i-251">
          <mxGeometry x="-0.1668" y="-2" relative="1" as="geometry">
            <mxPoint x="-8" y="12" as="offset" />
          </mxGeometry>
        </mxCell>
        <mxCell id="GVfrvTJsgrzWPwlHAr5i-253" style="edgeStyle=orthogonalEdgeStyle;shape=connector;rounded=0;orthogonalLoop=1;jettySize=auto;html=1;exitX=0;exitY=0.5;exitDx=0;exitDy=0;entryX=1;entryY=0.5;entryDx=0;entryDy=0;strokeColor=default;align=center;verticalAlign=middle;fontFamily=Helvetica;fontSize=11;fontColor=default;labelBackgroundColor=default;endArrow=open;endFill=0;" edge="1" parent="GVfrvTJsgrzWPwlHAr5i-211" source="GVfrvTJsgrzWPwlHAr5i-231" target="GVfrvTJsgrzWPwlHAr5i-219">
          <mxGeometry relative="1" as="geometry" />
        </mxCell>
        <mxCell id="GVfrvTJsgrzWPwlHAr5i-254" style="edgeStyle=orthogonalEdgeStyle;shape=connector;rounded=0;orthogonalLoop=1;jettySize=auto;html=1;exitX=1;exitY=0.5;exitDx=0;exitDy=0;entryX=0;entryY=0.5;entryDx=0;entryDy=0;strokeColor=default;align=center;verticalAlign=middle;fontFamily=Helvetica;fontSize=11;fontColor=default;labelBackgroundColor=default;endArrow=open;endFill=0;" edge="1" parent="GVfrvTJsgrzWPwlHAr5i-211" source="GVfrvTJsgrzWPwlHAr5i-220" target="GVfrvTJsgrzWPwlHAr5i-234">
          <mxGeometry relative="1" as="geometry" />
        </mxCell>
        <mxCell id="GVfrvTJsgrzWPwlHAr5i-255" style="edgeStyle=orthogonalEdgeStyle;shape=connector;rounded=0;orthogonalLoop=1;jettySize=auto;html=1;exitX=1;exitY=0.5;exitDx=0;exitDy=0;entryX=0;entryY=0.5;entryDx=0;entryDy=0;strokeColor=default;align=center;verticalAlign=middle;fontFamily=Helvetica;fontSize=11;fontColor=default;labelBackgroundColor=default;endArrow=open;endFill=0;" edge="1" parent="GVfrvTJsgrzWPwlHAr5i-211" source="GVfrvTJsgrzWPwlHAr5i-234" target="GVfrvTJsgrzWPwlHAr5i-262">
          <mxGeometry relative="1" as="geometry" />
        </mxCell>
        <mxCell id="GVfrvTJsgrzWPwlHAr5i-256" style="edgeStyle=orthogonalEdgeStyle;shape=connector;rounded=0;orthogonalLoop=1;jettySize=auto;html=1;exitX=0.5;exitY=1;exitDx=0;exitDy=0;strokeColor=default;align=center;verticalAlign=middle;fontFamily=Helvetica;fontSize=11;fontColor=default;labelBackgroundColor=default;endArrow=open;endFill=0;entryX=0;entryY=0.5;entryDx=0;entryDy=0;" edge="1" parent="GVfrvTJsgrzWPwlHAr5i-211" source="GVfrvTJsgrzWPwlHAr5i-221" target="GVfrvTJsgrzWPwlHAr5i-236">
          <mxGeometry relative="1" as="geometry">
            <mxPoint x="209.99999999999955" y="430" as="targetPoint" />
          </mxGeometry>
        </mxCell>
        <mxCell id="GVfrvTJsgrzWPwlHAr5i-257" style="edgeStyle=orthogonalEdgeStyle;shape=connector;rounded=0;orthogonalLoop=1;jettySize=auto;html=1;exitX=0.5;exitY=1;exitDx=0;exitDy=0;entryX=1;entryY=0.5;entryDx=0;entryDy=0;strokeColor=default;align=center;verticalAlign=middle;fontFamily=Helvetica;fontSize=11;fontColor=default;labelBackgroundColor=default;endArrow=open;endFill=0;" edge="1" parent="GVfrvTJsgrzWPwlHAr5i-211" source="GVfrvTJsgrzWPwlHAr5i-246" target="GVfrvTJsgrzWPwlHAr5i-237">
          <mxGeometry relative="1" as="geometry" />
        </mxCell>
        <mxCell id="GVfrvTJsgrzWPwlHAr5i-258" style="edgeStyle=orthogonalEdgeStyle;shape=connector;rounded=0;orthogonalLoop=1;jettySize=auto;html=1;exitX=1;exitY=0.5;exitDx=0;exitDy=0;entryX=0;entryY=0.5;entryDx=0;entryDy=0;strokeColor=default;align=center;verticalAlign=middle;fontFamily=Helvetica;fontSize=11;fontColor=default;labelBackgroundColor=default;endArrow=open;endFill=0;" edge="1" parent="GVfrvTJsgrzWPwlHAr5i-211" source="GVfrvTJsgrzWPwlHAr5i-240" target="GVfrvTJsgrzWPwlHAr5i-246">
          <mxGeometry relative="1" as="geometry" />
        </mxCell>
        <mxCell id="GVfrvTJsgrzWPwlHAr5i-259" value="[valid]" style="edgeLabel;html=1;align=center;verticalAlign=middle;resizable=0;points=[];fontFamily=Helvetica;fontSize=11;fontColor=default;labelBackgroundColor=default;" vertex="1" connectable="0" parent="GVfrvTJsgrzWPwlHAr5i-258">
          <mxGeometry x="-0.2872" y="1" relative="1" as="geometry">
            <mxPoint y="-10" as="offset" />
          </mxGeometry>
        </mxCell>
        <mxCell id="GVfrvTJsgrzWPwlHAr5i-260" style="edgeStyle=orthogonalEdgeStyle;shape=connector;rounded=0;orthogonalLoop=1;jettySize=auto;html=1;exitX=0;exitY=0.5;exitDx=0;exitDy=0;entryX=0;entryY=0.5;entryDx=0;entryDy=0;strokeColor=default;align=center;verticalAlign=middle;fontFamily=Helvetica;fontSize=11;fontColor=default;labelBackgroundColor=default;endArrow=open;endFill=0;" edge="1" parent="GVfrvTJsgrzWPwlHAr5i-211" source="GVfrvTJsgrzWPwlHAr5i-241" target="GVfrvTJsgrzWPwlHAr5i-221">
          <mxGeometry relative="1" as="geometry" />
        </mxCell>
        <mxCell id="GVfrvTJsgrzWPwlHAr5i-261" style="edgeStyle=orthogonalEdgeStyle;shape=connector;rounded=0;orthogonalLoop=1;jettySize=auto;html=1;exitX=0;exitY=0.5;exitDx=0;exitDy=0;entryX=1;entryY=0.5;entryDx=0;entryDy=0;strokeColor=default;align=center;verticalAlign=middle;fontFamily=Helvetica;fontSize=11;fontColor=default;labelBackgroundColor=default;endArrow=open;endFill=0;" edge="1" parent="GVfrvTJsgrzWPwlHAr5i-211" source="GVfrvTJsgrzWPwlHAr5i-237" target="GVfrvTJsgrzWPwlHAr5i-224">
          <mxGeometry relative="1" as="geometry" />
        </mxCell>
        <mxCell id="GVfrvTJsgrzWPwlHAr5i-263" style="edgeStyle=orthogonalEdgeStyle;shape=connector;rounded=0;orthogonalLoop=1;jettySize=auto;html=1;exitX=0.5;exitY=1;exitDx=0;exitDy=0;entryX=1;entryY=0.5;entryDx=0;entryDy=0;strokeColor=default;align=center;verticalAlign=middle;fontFamily=Helvetica;fontSize=11;fontColor=default;labelBackgroundColor=default;endArrow=open;endFill=0;" edge="1" parent="GVfrvTJsgrzWPwlHAr5i-211" source="GVfrvTJsgrzWPwlHAr5i-262" target="GVfrvTJsgrzWPwlHAr5i-264">
          <mxGeometry relative="1" as="geometry" />
        </mxCell>
        <mxCell id="GVfrvTJsgrzWPwlHAr5i-266" style="edgeStyle=orthogonalEdgeStyle;shape=connector;rounded=0;orthogonalLoop=1;jettySize=auto;html=1;exitX=0;exitY=0.5;exitDx=0;exitDy=0;entryX=1;entryY=0.5;entryDx=0;entryDy=0;strokeColor=default;align=center;verticalAlign=middle;fontFamily=Helvetica;fontSize=11;fontColor=default;labelBackgroundColor=default;endArrow=open;endFill=0;" edge="1" parent="GVfrvTJsgrzWPwlHAr5i-211" source="GVfrvTJsgrzWPwlHAr5i-264" target="GVfrvTJsgrzWPwlHAr5i-221">
          <mxGeometry relative="1" as="geometry" />
        </mxCell>
        <mxCell id="GVfrvTJsgrzWPwlHAr5i-267" value="" style="endArrow=none;dashed=1;html=1;rounded=0;strokeColor=default;align=center;verticalAlign=middle;fontFamily=Helvetica;fontSize=11;fontColor=default;labelBackgroundColor=default;strokeWidth=2;" edge="1" parent="GVfrvTJsgrzWPwlHAr5i-268">
          <mxGeometry width="50" height="50" relative="1" as="geometry">
            <mxPoint x="539.9999999999995" y="720" as="sourcePoint" />
            <mxPoint x="539.9999999999995" y="60" as="targetPoint" />
          </mxGeometry>
        </mxCell>
      </root>
    </mxGraphModel>
  </diagram>
  <diagram name="items" id="yL0NN0JWdS1iwDV2sqQr">
    <mxGraphModel dx="1275" dy="873" grid="1" gridSize="10" guides="1" tooltips="1" connect="1" arrows="1" fold="1" page="1" pageScale="1" pageWidth="1169" pageHeight="827" math="0" shadow="0">
      <root>
        <mxCell id="SLi12Y8iQW4d-EddRbmI-0" />
        <mxCell id="SLi12Y8iQW4d-EddRbmI-1" parent="SLi12Y8iQW4d-EddRbmI-0" />
        <mxCell id="SLi12Y8iQW4d-EddRbmI-2" value="" style="swimlane;startSize=0;fontFamily=Helvetica;fontSize=11;fontColor=default;labelBackgroundColor=default;strokeColor=none;" vertex="1" parent="SLi12Y8iQW4d-EddRbmI-1">
          <mxGeometry y="20" width="1150" height="780" as="geometry" />
        </mxCell>
        <mxCell id="SLi12Y8iQW4d-EddRbmI-3" value="" style="group" vertex="1" connectable="0" parent="SLi12Y8iQW4d-EddRbmI-2">
          <mxGeometry x="35.000000000000455" y="21" width="1080" height="759" as="geometry" />
        </mxCell>
        <mxCell id="SLi12Y8iQW4d-EddRbmI-4" value="Add Item" style="swimlane;childLayout=stackLayout;resizeParent=1;resizeParentMax=0;startSize=20;html=1;" vertex="1" parent="SLi12Y8iQW4d-EddRbmI-3">
          <mxGeometry x="20" y="59" width="490" height="680" as="geometry" />
        </mxCell>
        <mxCell id="SLi12Y8iQW4d-EddRbmI-5" value="User" style="swimlane;startSize=20;html=1;" vertex="1" parent="SLi12Y8iQW4d-EddRbmI-4">
          <mxGeometry y="20" width="170" height="660" as="geometry" />
        </mxCell>
        <mxCell id="SLi12Y8iQW4d-EddRbmI-6" value="" style="ellipse;html=1;shape=startState;fillColor=#000000;strokeColor=#ff0000;" vertex="1" parent="SLi12Y8iQW4d-EddRbmI-5">
          <mxGeometry x="44.999999999999545" y="40" width="30" height="30" as="geometry" />
        </mxCell>
        <mxCell id="SLi12Y8iQW4d-EddRbmI-7" value="" style="edgeStyle=orthogonalEdgeStyle;html=1;verticalAlign=bottom;endArrow=open;endSize=8;strokeColor=#ff0000;rounded=0;entryX=0.5;entryY=0;entryDx=0;entryDy=0;" edge="1" parent="SLi12Y8iQW4d-EddRbmI-5" source="SLi12Y8iQW4d-EddRbmI-6" target="SLi12Y8iQW4d-EddRbmI-9">
          <mxGeometry relative="1" as="geometry">
            <mxPoint x="59.999999999999545" y="90" as="targetPoint" />
          </mxGeometry>
        </mxCell>
        <mxCell id="SLi12Y8iQW4d-EddRbmI-8" style="edgeStyle=orthogonalEdgeStyle;rounded=0;orthogonalLoop=1;jettySize=auto;html=1;exitX=0.5;exitY=1;exitDx=0;exitDy=0;entryX=0.5;entryY=0;entryDx=0;entryDy=0;endArrow=open;endFill=0;" edge="1" parent="SLi12Y8iQW4d-EddRbmI-5" source="SLi12Y8iQW4d-EddRbmI-9" target="SLi12Y8iQW4d-EddRbmI-10">
          <mxGeometry relative="1" as="geometry" />
        </mxCell>
        <mxCell id="SLi12Y8iQW4d-EddRbmI-9" value="got to menu" style="rounded=1;whiteSpace=wrap;html=1;" vertex="1" parent="SLi12Y8iQW4d-EddRbmI-5">
          <mxGeometry x="20" y="100" width="80" height="30" as="geometry" />
        </mxCell>
        <mxCell id="SLi12Y8iQW4d-EddRbmI-10" value="click on &lt;br&gt;my Lists" style="rounded=1;whiteSpace=wrap;html=1;" vertex="1" parent="SLi12Y8iQW4d-EddRbmI-5">
          <mxGeometry x="20" y="150" width="80" height="30" as="geometry" />
        </mxCell>
        <mxCell id="SLi12Y8iQW4d-EddRbmI-11" value="" style="edgeStyle=orthogonalEdgeStyle;shape=connector;rounded=0;orthogonalLoop=1;jettySize=auto;html=1;strokeColor=default;align=center;verticalAlign=middle;fontFamily=Helvetica;fontSize=11;fontColor=default;labelBackgroundColor=default;endArrow=open;endFill=0;" edge="1" parent="SLi12Y8iQW4d-EddRbmI-5" source="SLi12Y8iQW4d-EddRbmI-12" target="SLi12Y8iQW4d-EddRbmI-13">
          <mxGeometry relative="1" as="geometry" />
        </mxCell>
        <mxCell id="SLi12Y8iQW4d-EddRbmI-12" value="display result" style="rounded=1;whiteSpace=wrap;html=1;" vertex="1" parent="SLi12Y8iQW4d-EddRbmI-5">
          <mxGeometry x="30" y="204" width="90" height="30" as="geometry" />
        </mxCell>
        <mxCell id="SLi12Y8iQW4d-EddRbmI-13" value="click on &lt;br&gt;List" style="rounded=1;whiteSpace=wrap;html=1;" vertex="1" parent="SLi12Y8iQW4d-EddRbmI-5">
          <mxGeometry x="30" y="300" width="90" height="30" as="geometry" />
        </mxCell>
        <mxCell id="SLi12Y8iQW4d-EddRbmI-14" value="Fill Form" style="rounded=1;whiteSpace=wrap;html=1;" vertex="1" parent="SLi12Y8iQW4d-EddRbmI-5">
          <mxGeometry x="30" y="430" width="90" height="30" as="geometry" />
        </mxCell>
        <mxCell id="SLi12Y8iQW4d-EddRbmI-15" value="" style="ellipse;html=1;shape=endState;fillColor=#000000;strokeColor=#ff0000;fontFamily=Helvetica;fontSize=11;fontColor=default;labelBackgroundColor=default;" vertex="1" parent="SLi12Y8iQW4d-EddRbmI-5">
          <mxGeometry x="74.99999999999955" y="627" width="30" height="30" as="geometry" />
        </mxCell>
        <mxCell id="SLi12Y8iQW4d-EddRbmI-16" style="edgeStyle=orthogonalEdgeStyle;shape=connector;rounded=0;orthogonalLoop=1;jettySize=auto;html=1;exitX=0.5;exitY=1;exitDx=0;exitDy=0;entryX=0.5;entryY=0;entryDx=0;entryDy=0;strokeColor=default;align=center;verticalAlign=middle;fontFamily=Helvetica;fontSize=11;fontColor=default;labelBackgroundColor=default;endArrow=open;endFill=0;" edge="1" parent="SLi12Y8iQW4d-EddRbmI-5" source="SLi12Y8iQW4d-EddRbmI-17" target="SLi12Y8iQW4d-EddRbmI-15">
          <mxGeometry relative="1" as="geometry" />
        </mxCell>
        <mxCell id="SLi12Y8iQW4d-EddRbmI-17" value="go to main page" style="rounded=1;whiteSpace=wrap;html=1;" vertex="1" parent="SLi12Y8iQW4d-EddRbmI-5">
          <mxGeometry x="45" y="577" width="90" height="30" as="geometry" />
        </mxCell>
        <mxCell id="ZBBdrp5oAf08COdv5DU7-4" value="click on &lt;br&gt;+ button" style="rounded=1;whiteSpace=wrap;html=1;" vertex="1" parent="SLi12Y8iQW4d-EddRbmI-5">
          <mxGeometry x="30" y="350" width="90" height="30" as="geometry" />
        </mxCell>
        <mxCell id="SLi12Y8iQW4d-EddRbmI-18" value="App" style="swimlane;startSize=20;html=1;" vertex="1" parent="SLi12Y8iQW4d-EddRbmI-4">
          <mxGeometry x="170" y="20" width="200" height="660" as="geometry" />
        </mxCell>
        <mxCell id="SLi12Y8iQW4d-EddRbmI-19" style="edgeStyle=orthogonalEdgeStyle;shape=connector;rounded=0;orthogonalLoop=1;jettySize=auto;html=1;exitX=0.5;exitY=1;exitDx=0;exitDy=0;entryX=0.5;entryY=0;entryDx=0;entryDy=0;strokeColor=default;align=center;verticalAlign=middle;fontFamily=Helvetica;fontSize=11;fontColor=default;labelBackgroundColor=default;endArrow=open;endFill=0;" edge="1" parent="SLi12Y8iQW4d-EddRbmI-18" source="SLi12Y8iQW4d-EddRbmI-20" target="SLi12Y8iQW4d-EddRbmI-21">
          <mxGeometry relative="1" as="geometry" />
        </mxCell>
        <mxCell id="SLi12Y8iQW4d-EddRbmI-20" value="go to My Lists" style="rounded=1;whiteSpace=wrap;html=1;" vertex="1" parent="SLi12Y8iQW4d-EddRbmI-18">
          <mxGeometry x="45" y="60" width="90" height="30" as="geometry" />
        </mxCell>
        <mxCell id="SLi12Y8iQW4d-EddRbmI-21" value="get Lists" style="rounded=1;whiteSpace=wrap;html=1;" vertex="1" parent="SLi12Y8iQW4d-EddRbmI-18">
          <mxGeometry x="45" y="110" width="90" height="30" as="geometry" />
        </mxCell>
        <mxCell id="SLi12Y8iQW4d-EddRbmI-22" value="set Lists in component" style="rounded=1;whiteSpace=wrap;html=1;" vertex="1" parent="SLi12Y8iQW4d-EddRbmI-18">
          <mxGeometry x="67" y="169" width="90" height="30" as="geometry" />
        </mxCell>
        <mxCell id="SLi12Y8iQW4d-EddRbmI-23" value="set empty message in component" style="rounded=1;whiteSpace=wrap;html=1;" vertex="1" parent="SLi12Y8iQW4d-EddRbmI-18">
          <mxGeometry x="60" y="239" width="115" height="30" as="geometry" />
        </mxCell>
        <mxCell id="SLi12Y8iQW4d-EddRbmI-24" value="" style="rhombus;fontFamily=Helvetica;fontSize=11;fontColor=default;labelBackgroundColor=default;" vertex="1" parent="SLi12Y8iQW4d-EddRbmI-18">
          <mxGeometry x="-4.547473508864641e-13" y="204" width="30" height="30" as="geometry" />
        </mxCell>
        <mxCell id="SLi12Y8iQW4d-EddRbmI-25" style="edgeStyle=orthogonalEdgeStyle;shape=connector;rounded=0;orthogonalLoop=1;jettySize=auto;html=1;exitX=0;exitY=0.5;exitDx=0;exitDy=0;entryX=0.5;entryY=1;entryDx=0;entryDy=0;strokeColor=default;align=center;verticalAlign=middle;fontFamily=Helvetica;fontSize=11;fontColor=default;labelBackgroundColor=default;endArrow=open;endFill=0;" edge="1" parent="SLi12Y8iQW4d-EddRbmI-18" source="SLi12Y8iQW4d-EddRbmI-23" target="SLi12Y8iQW4d-EddRbmI-24">
          <mxGeometry relative="1" as="geometry" />
        </mxCell>
        <mxCell id="SLi12Y8iQW4d-EddRbmI-26" style="edgeStyle=orthogonalEdgeStyle;shape=connector;rounded=0;orthogonalLoop=1;jettySize=auto;html=1;exitX=0;exitY=0.5;exitDx=0;exitDy=0;entryX=0.5;entryY=0;entryDx=0;entryDy=0;strokeColor=default;align=center;verticalAlign=middle;fontFamily=Helvetica;fontSize=11;fontColor=default;labelBackgroundColor=default;endArrow=open;endFill=0;" edge="1" parent="SLi12Y8iQW4d-EddRbmI-18" source="SLi12Y8iQW4d-EddRbmI-22" target="SLi12Y8iQW4d-EddRbmI-24">
          <mxGeometry relative="1" as="geometry" />
        </mxCell>
        <mxCell id="SLi12Y8iQW4d-EddRbmI-27" value="go to List Component" style="rounded=1;whiteSpace=wrap;html=1;" vertex="1" parent="SLi12Y8iQW4d-EddRbmI-18">
          <mxGeometry x="45" y="300" width="90" height="30" as="geometry" />
        </mxCell>
        <mxCell id="SLi12Y8iQW4d-EddRbmI-28" style="edgeStyle=orthogonalEdgeStyle;shape=connector;rounded=0;orthogonalLoop=1;jettySize=auto;html=1;exitX=1;exitY=0.5;exitDx=0;exitDy=0;entryX=0;entryY=0.5;entryDx=0;entryDy=0;strokeColor=default;align=center;verticalAlign=middle;fontFamily=Helvetica;fontSize=11;fontColor=default;labelBackgroundColor=default;endArrow=open;endFill=0;" edge="1" parent="SLi12Y8iQW4d-EddRbmI-18" source="SLi12Y8iQW4d-EddRbmI-29" target="SLi12Y8iQW4d-EddRbmI-33">
          <mxGeometry relative="1" as="geometry" />
        </mxCell>
        <mxCell id="SLi12Y8iQW4d-EddRbmI-29" value="validate data&amp;nbsp;" style="rounded=1;whiteSpace=wrap;html=1;" vertex="1" parent="SLi12Y8iQW4d-EddRbmI-18">
          <mxGeometry x="20" y="465" width="85" height="30" as="geometry" />
        </mxCell>
        <mxCell id="SLi12Y8iQW4d-EddRbmI-30" value="display succes toast message" style="rounded=1;whiteSpace=wrap;html=1;" vertex="1" parent="SLi12Y8iQW4d-EddRbmI-18">
          <mxGeometry x="97.5" y="577" width="90" height="30" as="geometry" />
        </mxCell>
        <mxCell id="SLi12Y8iQW4d-EddRbmI-31" style="edgeStyle=orthogonalEdgeStyle;shape=connector;rounded=0;orthogonalLoop=1;jettySize=auto;html=1;exitX=0.5;exitY=1;exitDx=0;exitDy=0;entryX=1;entryY=0.5;entryDx=0;entryDy=0;strokeColor=default;align=center;verticalAlign=middle;fontFamily=Helvetica;fontSize=11;fontColor=default;labelBackgroundColor=default;endArrow=open;endFill=0;" edge="1" parent="SLi12Y8iQW4d-EddRbmI-18" source="SLi12Y8iQW4d-EddRbmI-33" target="SLi12Y8iQW4d-EddRbmI-34">
          <mxGeometry relative="1" as="geometry" />
        </mxCell>
        <mxCell id="SLi12Y8iQW4d-EddRbmI-32" value="[invalid]" style="edgeLabel;html=1;align=center;verticalAlign=middle;resizable=0;points=[];fontFamily=Helvetica;fontSize=11;fontColor=default;labelBackgroundColor=default;" vertex="1" connectable="0" parent="SLi12Y8iQW4d-EddRbmI-31">
          <mxGeometry x="-0.7156" y="-1" relative="1" as="geometry">
            <mxPoint x="21" y="12" as="offset" />
          </mxGeometry>
        </mxCell>
        <mxCell id="SLi12Y8iQW4d-EddRbmI-33" value="" style="rhombus;fontFamily=Helvetica;fontSize=11;fontColor=default;labelBackgroundColor=default;" vertex="1" parent="SLi12Y8iQW4d-EddRbmI-18">
          <mxGeometry x="126.99999999999955" y="465" width="30" height="30" as="geometry" />
        </mxCell>
        <mxCell id="SLi12Y8iQW4d-EddRbmI-34" value="display error toast message" style="rounded=1;whiteSpace=wrap;html=1;" vertex="1" parent="SLi12Y8iQW4d-EddRbmI-18">
          <mxGeometry x="17.5" y="527" width="90" height="30" as="geometry" />
        </mxCell>
        <mxCell id="ZBBdrp5oAf08COdv5DU7-2" value="display result" style="rounded=1;whiteSpace=wrap;html=1;" vertex="1" parent="SLi12Y8iQW4d-EddRbmI-18">
          <mxGeometry x="50" y="350" width="85" height="20" as="geometry" />
        </mxCell>
        <mxCell id="ZBBdrp5oAf08COdv5DU7-6" value="go to Add Item Component" style="rounded=1;whiteSpace=wrap;html=1;" vertex="1" parent="SLi12Y8iQW4d-EddRbmI-18">
          <mxGeometry x="45" y="390" width="90" height="30" as="geometry" />
        </mxCell>
        <mxCell id="SLi12Y8iQW4d-EddRbmI-35" value="DB" style="swimlane;startSize=20;html=1;" vertex="1" parent="SLi12Y8iQW4d-EddRbmI-4">
          <mxGeometry x="370" y="20" width="120" height="660" as="geometry" />
        </mxCell>
        <mxCell id="SLi12Y8iQW4d-EddRbmI-36" value="selecet Lists" style="rounded=1;whiteSpace=wrap;html=1;" vertex="1" parent="SLi12Y8iQW4d-EddRbmI-35">
          <mxGeometry x="20" y="110" width="90" height="30" as="geometry" />
        </mxCell>
        <mxCell id="SLi12Y8iQW4d-EddRbmI-37" value="" style="rhombus;fontFamily=Helvetica;fontSize=11;fontColor=default;labelBackgroundColor=default;" vertex="1" parent="SLi12Y8iQW4d-EddRbmI-35">
          <mxGeometry x="49.999999999999545" y="200" width="30" height="30" as="geometry" />
        </mxCell>
        <mxCell id="SLi12Y8iQW4d-EddRbmI-38" style="edgeStyle=orthogonalEdgeStyle;shape=connector;rounded=0;orthogonalLoop=1;jettySize=auto;html=1;exitX=0.5;exitY=1;exitDx=0;exitDy=0;entryX=0.5;entryY=0;entryDx=0;entryDy=0;strokeColor=default;align=center;verticalAlign=middle;fontFamily=Helvetica;fontSize=11;fontColor=default;labelBackgroundColor=default;endArrow=open;endFill=0;" edge="1" parent="SLi12Y8iQW4d-EddRbmI-35" source="SLi12Y8iQW4d-EddRbmI-36" target="SLi12Y8iQW4d-EddRbmI-37">
          <mxGeometry relative="1" as="geometry" />
        </mxCell>
        <mxCell id="SLi12Y8iQW4d-EddRbmI-39" value="insert data" style="rounded=1;whiteSpace=wrap;html=1;" vertex="1" parent="SLi12Y8iQW4d-EddRbmI-35">
          <mxGeometry x="15" y="465" width="90" height="30" as="geometry" />
        </mxCell>
        <mxCell id="ZBBdrp5oAf08COdv5DU7-0" value="select Items" style="rounded=1;whiteSpace=wrap;html=1;" vertex="1" parent="SLi12Y8iQW4d-EddRbmI-35">
          <mxGeometry x="20" y="300" width="90" height="30" as="geometry" />
        </mxCell>
        <mxCell id="SLi12Y8iQW4d-EddRbmI-40" value="" style="edgeStyle=orthogonalEdgeStyle;shape=connector;rounded=0;orthogonalLoop=1;jettySize=auto;html=1;strokeColor=default;align=center;verticalAlign=middle;fontFamily=Helvetica;fontSize=11;fontColor=default;labelBackgroundColor=default;endArrow=open;endFill=0;entryX=0;entryY=0.5;entryDx=0;entryDy=0;" edge="1" parent="SLi12Y8iQW4d-EddRbmI-4" source="SLi12Y8iQW4d-EddRbmI-10" target="SLi12Y8iQW4d-EddRbmI-20">
          <mxGeometry relative="1" as="geometry" />
        </mxCell>
        <mxCell id="SLi12Y8iQW4d-EddRbmI-41" style="edgeStyle=orthogonalEdgeStyle;shape=connector;rounded=0;orthogonalLoop=1;jettySize=auto;html=1;exitX=1;exitY=0.5;exitDx=0;exitDy=0;entryX=0;entryY=0.5;entryDx=0;entryDy=0;strokeColor=default;align=center;verticalAlign=middle;fontFamily=Helvetica;fontSize=11;fontColor=default;labelBackgroundColor=default;endArrow=open;endFill=0;" edge="1" parent="SLi12Y8iQW4d-EddRbmI-4" source="SLi12Y8iQW4d-EddRbmI-21" target="SLi12Y8iQW4d-EddRbmI-36">
          <mxGeometry relative="1" as="geometry" />
        </mxCell>
        <mxCell id="SLi12Y8iQW4d-EddRbmI-42" style="edgeStyle=orthogonalEdgeStyle;shape=connector;rounded=0;orthogonalLoop=1;jettySize=auto;html=1;exitX=0;exitY=0.5;exitDx=0;exitDy=0;entryX=1;entryY=0.5;entryDx=0;entryDy=0;strokeColor=default;align=center;verticalAlign=middle;fontFamily=Helvetica;fontSize=11;fontColor=default;labelBackgroundColor=default;endArrow=open;endFill=0;" edge="1" parent="SLi12Y8iQW4d-EddRbmI-4" source="SLi12Y8iQW4d-EddRbmI-37" target="SLi12Y8iQW4d-EddRbmI-22">
          <mxGeometry relative="1" as="geometry">
            <Array as="points">
              <mxPoint x="350" y="235" />
              <mxPoint x="350" y="204" />
            </Array>
          </mxGeometry>
        </mxCell>
        <mxCell id="SLi12Y8iQW4d-EddRbmI-43" value="[result exist]" style="edgeLabel;html=1;align=center;verticalAlign=middle;resizable=0;points=[];fontFamily=Helvetica;fontSize=11;fontColor=default;labelBackgroundColor=default;" vertex="1" connectable="0" parent="SLi12Y8iQW4d-EddRbmI-42">
          <mxGeometry x="-0.7682" y="-1" relative="1" as="geometry">
            <mxPoint x="-10" y="-14" as="offset" />
          </mxGeometry>
        </mxCell>
        <mxCell id="SLi12Y8iQW4d-EddRbmI-44" style="edgeStyle=orthogonalEdgeStyle;shape=connector;rounded=0;orthogonalLoop=1;jettySize=auto;html=1;exitX=0.5;exitY=1;exitDx=0;exitDy=0;entryX=1;entryY=0.5;entryDx=0;entryDy=0;strokeColor=default;align=center;verticalAlign=middle;fontFamily=Helvetica;fontSize=11;fontColor=default;labelBackgroundColor=default;endArrow=open;endFill=0;" edge="1" parent="SLi12Y8iQW4d-EddRbmI-4" source="SLi12Y8iQW4d-EddRbmI-37" target="SLi12Y8iQW4d-EddRbmI-23">
          <mxGeometry relative="1" as="geometry" />
        </mxCell>
        <mxCell id="SLi12Y8iQW4d-EddRbmI-45" value="[empty result]" style="edgeLabel;html=1;align=center;verticalAlign=middle;resizable=0;points=[];fontFamily=Helvetica;fontSize=11;fontColor=default;labelBackgroundColor=default;" vertex="1" connectable="0" parent="SLi12Y8iQW4d-EddRbmI-44">
          <mxGeometry x="-0.1668" y="-2" relative="1" as="geometry">
            <mxPoint x="-8" y="12" as="offset" />
          </mxGeometry>
        </mxCell>
        <mxCell id="SLi12Y8iQW4d-EddRbmI-46" style="edgeStyle=orthogonalEdgeStyle;shape=connector;rounded=0;orthogonalLoop=1;jettySize=auto;html=1;exitX=0;exitY=0.5;exitDx=0;exitDy=0;entryX=1;entryY=0.5;entryDx=0;entryDy=0;strokeColor=default;align=center;verticalAlign=middle;fontFamily=Helvetica;fontSize=11;fontColor=default;labelBackgroundColor=default;endArrow=open;endFill=0;" edge="1" parent="SLi12Y8iQW4d-EddRbmI-4" source="SLi12Y8iQW4d-EddRbmI-24" target="SLi12Y8iQW4d-EddRbmI-12">
          <mxGeometry relative="1" as="geometry" />
        </mxCell>
        <mxCell id="SLi12Y8iQW4d-EddRbmI-47" style="edgeStyle=orthogonalEdgeStyle;shape=connector;rounded=0;orthogonalLoop=1;jettySize=auto;html=1;exitX=1;exitY=0.5;exitDx=0;exitDy=0;entryX=0;entryY=0.5;entryDx=0;entryDy=0;strokeColor=default;align=center;verticalAlign=middle;fontFamily=Helvetica;fontSize=11;fontColor=default;labelBackgroundColor=default;endArrow=open;endFill=0;" edge="1" parent="SLi12Y8iQW4d-EddRbmI-4" source="SLi12Y8iQW4d-EddRbmI-13" target="SLi12Y8iQW4d-EddRbmI-27">
          <mxGeometry relative="1" as="geometry" />
        </mxCell>
        <mxCell id="SLi12Y8iQW4d-EddRbmI-49" style="edgeStyle=orthogonalEdgeStyle;shape=connector;rounded=0;orthogonalLoop=1;jettySize=auto;html=1;exitX=0.5;exitY=1;exitDx=0;exitDy=0;strokeColor=default;align=center;verticalAlign=middle;fontFamily=Helvetica;fontSize=11;fontColor=default;labelBackgroundColor=default;endArrow=open;endFill=0;entryX=0;entryY=0.5;entryDx=0;entryDy=0;" edge="1" parent="SLi12Y8iQW4d-EddRbmI-4" source="SLi12Y8iQW4d-EddRbmI-14" target="SLi12Y8iQW4d-EddRbmI-29">
          <mxGeometry relative="1" as="geometry">
            <mxPoint x="209.99999999999955" y="430" as="targetPoint" />
          </mxGeometry>
        </mxCell>
        <mxCell id="SLi12Y8iQW4d-EddRbmI-50" style="edgeStyle=orthogonalEdgeStyle;shape=connector;rounded=0;orthogonalLoop=1;jettySize=auto;html=1;exitX=0.5;exitY=1;exitDx=0;exitDy=0;entryX=1;entryY=0.5;entryDx=0;entryDy=0;strokeColor=default;align=center;verticalAlign=middle;fontFamily=Helvetica;fontSize=11;fontColor=default;labelBackgroundColor=default;endArrow=open;endFill=0;" edge="1" parent="SLi12Y8iQW4d-EddRbmI-4" source="SLi12Y8iQW4d-EddRbmI-39" target="SLi12Y8iQW4d-EddRbmI-30">
          <mxGeometry relative="1" as="geometry" />
        </mxCell>
        <mxCell id="SLi12Y8iQW4d-EddRbmI-51" style="edgeStyle=orthogonalEdgeStyle;shape=connector;rounded=0;orthogonalLoop=1;jettySize=auto;html=1;exitX=1;exitY=0.5;exitDx=0;exitDy=0;entryX=0;entryY=0.5;entryDx=0;entryDy=0;strokeColor=default;align=center;verticalAlign=middle;fontFamily=Helvetica;fontSize=11;fontColor=default;labelBackgroundColor=default;endArrow=open;endFill=0;" edge="1" parent="SLi12Y8iQW4d-EddRbmI-4" source="SLi12Y8iQW4d-EddRbmI-33" target="SLi12Y8iQW4d-EddRbmI-39">
          <mxGeometry relative="1" as="geometry" />
        </mxCell>
        <mxCell id="SLi12Y8iQW4d-EddRbmI-52" value="[valid]" style="edgeLabel;html=1;align=center;verticalAlign=middle;resizable=0;points=[];fontFamily=Helvetica;fontSize=11;fontColor=default;labelBackgroundColor=default;" vertex="1" connectable="0" parent="SLi12Y8iQW4d-EddRbmI-51">
          <mxGeometry x="-0.2872" y="1" relative="1" as="geometry">
            <mxPoint y="-10" as="offset" />
          </mxGeometry>
        </mxCell>
        <mxCell id="SLi12Y8iQW4d-EddRbmI-53" style="edgeStyle=orthogonalEdgeStyle;shape=connector;rounded=0;orthogonalLoop=1;jettySize=auto;html=1;exitX=0;exitY=0.5;exitDx=0;exitDy=0;entryX=0;entryY=0.5;entryDx=0;entryDy=0;strokeColor=default;align=center;verticalAlign=middle;fontFamily=Helvetica;fontSize=11;fontColor=default;labelBackgroundColor=default;endArrow=open;endFill=0;" edge="1" parent="SLi12Y8iQW4d-EddRbmI-4" source="SLi12Y8iQW4d-EddRbmI-34" target="SLi12Y8iQW4d-EddRbmI-14">
          <mxGeometry relative="1" as="geometry" />
        </mxCell>
        <mxCell id="SLi12Y8iQW4d-EddRbmI-54" style="edgeStyle=orthogonalEdgeStyle;shape=connector;rounded=0;orthogonalLoop=1;jettySize=auto;html=1;exitX=0;exitY=0.5;exitDx=0;exitDy=0;entryX=1;entryY=0.5;entryDx=0;entryDy=0;strokeColor=default;align=center;verticalAlign=middle;fontFamily=Helvetica;fontSize=11;fontColor=default;labelBackgroundColor=default;endArrow=open;endFill=0;" edge="1" parent="SLi12Y8iQW4d-EddRbmI-4" source="SLi12Y8iQW4d-EddRbmI-30" target="SLi12Y8iQW4d-EddRbmI-17">
          <mxGeometry relative="1" as="geometry" />
        </mxCell>
        <mxCell id="ZBBdrp5oAf08COdv5DU7-1" style="edgeStyle=orthogonalEdgeStyle;shape=connector;rounded=0;orthogonalLoop=1;jettySize=auto;html=1;exitX=1;exitY=0.5;exitDx=0;exitDy=0;entryX=0;entryY=0.5;entryDx=0;entryDy=0;strokeColor=default;align=center;verticalAlign=middle;fontFamily=Helvetica;fontSize=11;fontColor=default;labelBackgroundColor=default;endArrow=open;endFill=0;" edge="1" parent="SLi12Y8iQW4d-EddRbmI-4" source="SLi12Y8iQW4d-EddRbmI-27" target="ZBBdrp5oAf08COdv5DU7-0">
          <mxGeometry relative="1" as="geometry" />
        </mxCell>
        <mxCell id="ZBBdrp5oAf08COdv5DU7-3" style="edgeStyle=orthogonalEdgeStyle;shape=connector;rounded=0;orthogonalLoop=1;jettySize=auto;html=1;exitX=0.5;exitY=1;exitDx=0;exitDy=0;entryX=1;entryY=0.5;entryDx=0;entryDy=0;strokeColor=default;align=center;verticalAlign=middle;fontFamily=Helvetica;fontSize=11;fontColor=default;labelBackgroundColor=default;endArrow=open;endFill=0;" edge="1" parent="SLi12Y8iQW4d-EddRbmI-4" source="ZBBdrp5oAf08COdv5DU7-0" target="ZBBdrp5oAf08COdv5DU7-2">
          <mxGeometry relative="1" as="geometry" />
        </mxCell>
        <mxCell id="ZBBdrp5oAf08COdv5DU7-5" style="edgeStyle=orthogonalEdgeStyle;shape=connector;rounded=0;orthogonalLoop=1;jettySize=auto;html=1;exitX=0;exitY=0.5;exitDx=0;exitDy=0;entryX=1;entryY=0.5;entryDx=0;entryDy=0;strokeColor=default;align=center;verticalAlign=middle;fontFamily=Helvetica;fontSize=11;fontColor=default;labelBackgroundColor=default;endArrow=open;endFill=0;" edge="1" parent="SLi12Y8iQW4d-EddRbmI-4" source="ZBBdrp5oAf08COdv5DU7-2" target="ZBBdrp5oAf08COdv5DU7-4">
          <mxGeometry relative="1" as="geometry" />
        </mxCell>
        <mxCell id="ZBBdrp5oAf08COdv5DU7-8" style="edgeStyle=orthogonalEdgeStyle;shape=connector;rounded=0;orthogonalLoop=1;jettySize=auto;html=1;exitX=0.5;exitY=1;exitDx=0;exitDy=0;entryX=0;entryY=0.5;entryDx=0;entryDy=0;strokeColor=default;align=center;verticalAlign=middle;fontFamily=Helvetica;fontSize=11;fontColor=default;labelBackgroundColor=default;endArrow=open;endFill=0;" edge="1" parent="SLi12Y8iQW4d-EddRbmI-4" source="ZBBdrp5oAf08COdv5DU7-4" target="ZBBdrp5oAf08COdv5DU7-6">
          <mxGeometry relative="1" as="geometry" />
        </mxCell>
        <mxCell id="ZBBdrp5oAf08COdv5DU7-9" style="edgeStyle=orthogonalEdgeStyle;shape=connector;rounded=0;orthogonalLoop=1;jettySize=auto;html=1;exitX=0.5;exitY=1;exitDx=0;exitDy=0;entryX=1;entryY=0.5;entryDx=0;entryDy=0;strokeColor=default;align=center;verticalAlign=middle;fontFamily=Helvetica;fontSize=11;fontColor=default;labelBackgroundColor=default;endArrow=open;endFill=0;" edge="1" parent="SLi12Y8iQW4d-EddRbmI-4" source="ZBBdrp5oAf08COdv5DU7-6" target="SLi12Y8iQW4d-EddRbmI-14">
          <mxGeometry relative="1" as="geometry" />
        </mxCell>
        <mxCell id="SLi12Y8iQW4d-EddRbmI-55" value="&lt;b&gt;&lt;font face=&quot;Verdana&quot; style=&quot;font-size: 30px;&quot;&gt;Item Activities&lt;/font&gt;&lt;/b&gt;" style="text;html=1;align=center;verticalAlign=middle;whiteSpace=wrap;rounded=0;fontFamily=Helvetica;fontSize=11;fontColor=default;labelBackgroundColor=none;" vertex="1" parent="SLi12Y8iQW4d-EddRbmI-3">
          <mxGeometry x="413.99999999999955" width="262" height="30" as="geometry" />
        </mxCell>
        <mxCell id="SLi12Y8iQW4d-EddRbmI-56" value="" style="endArrow=none;html=1;rounded=0;strokeColor=default;align=center;verticalAlign=middle;fontFamily=Helvetica;fontSize=11;fontColor=default;labelBackgroundColor=default;edgeStyle=orthogonalEdgeStyle;entryX=1;entryY=1;entryDx=0;entryDy=0;exitX=0;exitY=1;exitDx=0;exitDy=0;strokeWidth=2;" edge="1" parent="SLi12Y8iQW4d-EddRbmI-3" source="SLi12Y8iQW4d-EddRbmI-55" target="SLi12Y8iQW4d-EddRbmI-55">
          <mxGeometry width="50" height="50" relative="1" as="geometry">
            <mxPoint x="79.99999999999955" y="30" as="sourcePoint" />
            <mxPoint x="129.99999999999955" y="-20" as="targetPoint" />
          </mxGeometry>
        </mxCell>
        <mxCell id="SLi12Y8iQW4d-EddRbmI-112" value="" style="endArrow=none;dashed=1;html=1;rounded=0;strokeColor=default;align=center;verticalAlign=middle;fontFamily=Helvetica;fontSize=11;fontColor=default;labelBackgroundColor=default;strokeWidth=2;exitX=0.5;exitY=1;exitDx=0;exitDy=0;" edge="1" parent="SLi12Y8iQW4d-EddRbmI-3" source="SLi12Y8iQW4d-EddRbmI-2">
          <mxGeometry width="50" height="50" relative="1" as="geometry">
            <mxPoint x="539.9999999999995" y="720" as="sourcePoint" />
            <mxPoint x="539.9999999999995" y="60" as="targetPoint" />
          </mxGeometry>
        </mxCell>
        <mxCell id="ZBBdrp5oAf08COdv5DU7-74" value="Edit Item" style="swimlane;childLayout=stackLayout;resizeParent=1;resizeParentMax=0;startSize=20;html=1;" vertex="1" parent="SLi12Y8iQW4d-EddRbmI-3">
          <mxGeometry x="580" y="59" width="490" height="680" as="geometry" />
        </mxCell>
        <mxCell id="ZBBdrp5oAf08COdv5DU7-75" value="User" style="swimlane;startSize=20;html=1;" vertex="1" parent="ZBBdrp5oAf08COdv5DU7-74">
          <mxGeometry y="20" width="170" height="660" as="geometry" />
        </mxCell>
        <mxCell id="ZBBdrp5oAf08COdv5DU7-76" value="" style="ellipse;html=1;shape=startState;fillColor=#000000;strokeColor=#ff0000;" vertex="1" parent="ZBBdrp5oAf08COdv5DU7-75">
          <mxGeometry x="44.999999999999545" y="40" width="30" height="30" as="geometry" />
        </mxCell>
        <mxCell id="ZBBdrp5oAf08COdv5DU7-77" value="" style="edgeStyle=orthogonalEdgeStyle;html=1;verticalAlign=bottom;endArrow=open;endSize=8;strokeColor=#ff0000;rounded=0;entryX=0.5;entryY=0;entryDx=0;entryDy=0;" edge="1" parent="ZBBdrp5oAf08COdv5DU7-75" source="ZBBdrp5oAf08COdv5DU7-76" target="ZBBdrp5oAf08COdv5DU7-79">
          <mxGeometry relative="1" as="geometry">
            <mxPoint x="59.999999999999545" y="90" as="targetPoint" />
          </mxGeometry>
        </mxCell>
        <mxCell id="ZBBdrp5oAf08COdv5DU7-78" style="edgeStyle=orthogonalEdgeStyle;rounded=0;orthogonalLoop=1;jettySize=auto;html=1;exitX=0.5;exitY=1;exitDx=0;exitDy=0;entryX=0.5;entryY=0;entryDx=0;entryDy=0;endArrow=open;endFill=0;" edge="1" parent="ZBBdrp5oAf08COdv5DU7-75" source="ZBBdrp5oAf08COdv5DU7-79" target="ZBBdrp5oAf08COdv5DU7-80">
          <mxGeometry relative="1" as="geometry" />
        </mxCell>
        <mxCell id="ZBBdrp5oAf08COdv5DU7-79" value="got to menu" style="rounded=1;whiteSpace=wrap;html=1;" vertex="1" parent="ZBBdrp5oAf08COdv5DU7-75">
          <mxGeometry x="20" y="100" width="80" height="30" as="geometry" />
        </mxCell>
        <mxCell id="ZBBdrp5oAf08COdv5DU7-80" value="click on &lt;br&gt;my Lists" style="rounded=1;whiteSpace=wrap;html=1;" vertex="1" parent="ZBBdrp5oAf08COdv5DU7-75">
          <mxGeometry x="20" y="150" width="80" height="30" as="geometry" />
        </mxCell>
        <mxCell id="ZBBdrp5oAf08COdv5DU7-81" value="" style="edgeStyle=orthogonalEdgeStyle;shape=connector;rounded=0;orthogonalLoop=1;jettySize=auto;html=1;strokeColor=default;align=center;verticalAlign=middle;fontFamily=Helvetica;fontSize=11;fontColor=default;labelBackgroundColor=default;endArrow=open;endFill=0;" edge="1" parent="ZBBdrp5oAf08COdv5DU7-75" source="ZBBdrp5oAf08COdv5DU7-82" target="ZBBdrp5oAf08COdv5DU7-83">
          <mxGeometry relative="1" as="geometry" />
        </mxCell>
        <mxCell id="ZBBdrp5oAf08COdv5DU7-82" value="display result" style="rounded=1;whiteSpace=wrap;html=1;" vertex="1" parent="ZBBdrp5oAf08COdv5DU7-75">
          <mxGeometry x="30" y="204" width="90" height="30" as="geometry" />
        </mxCell>
        <mxCell id="ZBBdrp5oAf08COdv5DU7-83" value="click on &lt;br&gt;List" style="rounded=1;whiteSpace=wrap;html=1;" vertex="1" parent="ZBBdrp5oAf08COdv5DU7-75">
          <mxGeometry x="30" y="300" width="90" height="30" as="geometry" />
        </mxCell>
        <mxCell id="ZBBdrp5oAf08COdv5DU7-84" value="update Form" style="rounded=1;whiteSpace=wrap;html=1;" vertex="1" parent="ZBBdrp5oAf08COdv5DU7-75">
          <mxGeometry x="30" y="430" width="90" height="30" as="geometry" />
        </mxCell>
        <mxCell id="ZBBdrp5oAf08COdv5DU7-85" value="" style="ellipse;html=1;shape=endState;fillColor=#000000;strokeColor=#ff0000;fontFamily=Helvetica;fontSize=11;fontColor=default;labelBackgroundColor=default;" vertex="1" parent="ZBBdrp5oAf08COdv5DU7-75">
          <mxGeometry x="74.99999999999955" y="627" width="30" height="30" as="geometry" />
        </mxCell>
        <mxCell id="ZBBdrp5oAf08COdv5DU7-86" style="edgeStyle=orthogonalEdgeStyle;shape=connector;rounded=0;orthogonalLoop=1;jettySize=auto;html=1;exitX=0.5;exitY=1;exitDx=0;exitDy=0;entryX=0.5;entryY=0;entryDx=0;entryDy=0;strokeColor=default;align=center;verticalAlign=middle;fontFamily=Helvetica;fontSize=11;fontColor=default;labelBackgroundColor=default;endArrow=open;endFill=0;" edge="1" parent="ZBBdrp5oAf08COdv5DU7-75" source="ZBBdrp5oAf08COdv5DU7-87" target="ZBBdrp5oAf08COdv5DU7-85">
          <mxGeometry relative="1" as="geometry" />
        </mxCell>
        <mxCell id="ZBBdrp5oAf08COdv5DU7-87" value="go to main page" style="rounded=1;whiteSpace=wrap;html=1;" vertex="1" parent="ZBBdrp5oAf08COdv5DU7-75">
          <mxGeometry x="45" y="577" width="90" height="30" as="geometry" />
        </mxCell>
        <mxCell id="ZBBdrp5oAf08COdv5DU7-88" value="click on &lt;br&gt;edit from subMenu" style="rounded=1;whiteSpace=wrap;html=1;" vertex="1" parent="ZBBdrp5oAf08COdv5DU7-75">
          <mxGeometry x="30" y="346" width="120" height="30" as="geometry" />
        </mxCell>
        <mxCell id="ZBBdrp5oAf08COdv5DU7-89" value="App" style="swimlane;startSize=20;html=1;" vertex="1" parent="ZBBdrp5oAf08COdv5DU7-74">
          <mxGeometry x="170" y="20" width="200" height="660" as="geometry" />
        </mxCell>
        <mxCell id="ZBBdrp5oAf08COdv5DU7-90" style="edgeStyle=orthogonalEdgeStyle;shape=connector;rounded=0;orthogonalLoop=1;jettySize=auto;html=1;exitX=0.5;exitY=1;exitDx=0;exitDy=0;entryX=0.5;entryY=0;entryDx=0;entryDy=0;strokeColor=default;align=center;verticalAlign=middle;fontFamily=Helvetica;fontSize=11;fontColor=default;labelBackgroundColor=default;endArrow=open;endFill=0;" edge="1" parent="ZBBdrp5oAf08COdv5DU7-89" source="ZBBdrp5oAf08COdv5DU7-91" target="ZBBdrp5oAf08COdv5DU7-92">
          <mxGeometry relative="1" as="geometry" />
        </mxCell>
        <mxCell id="ZBBdrp5oAf08COdv5DU7-91" value="go to My Lists" style="rounded=1;whiteSpace=wrap;html=1;" vertex="1" parent="ZBBdrp5oAf08COdv5DU7-89">
          <mxGeometry x="45" y="60" width="90" height="30" as="geometry" />
        </mxCell>
        <mxCell id="ZBBdrp5oAf08COdv5DU7-92" value="get Lists" style="rounded=1;whiteSpace=wrap;html=1;" vertex="1" parent="ZBBdrp5oAf08COdv5DU7-89">
          <mxGeometry x="45" y="110" width="90" height="30" as="geometry" />
        </mxCell>
        <mxCell id="ZBBdrp5oAf08COdv5DU7-93" value="set Lists in component" style="rounded=1;whiteSpace=wrap;html=1;" vertex="1" parent="ZBBdrp5oAf08COdv5DU7-89">
          <mxGeometry x="67" y="169" width="90" height="30" as="geometry" />
        </mxCell>
        <mxCell id="ZBBdrp5oAf08COdv5DU7-94" value="set empty message in component" style="rounded=1;whiteSpace=wrap;html=1;" vertex="1" parent="ZBBdrp5oAf08COdv5DU7-89">
          <mxGeometry x="60" y="239" width="115" height="30" as="geometry" />
        </mxCell>
        <mxCell id="ZBBdrp5oAf08COdv5DU7-95" value="" style="rhombus;fontFamily=Helvetica;fontSize=11;fontColor=default;labelBackgroundColor=default;" vertex="1" parent="ZBBdrp5oAf08COdv5DU7-89">
          <mxGeometry x="-4.547473508864641e-13" y="204" width="30" height="30" as="geometry" />
        </mxCell>
        <mxCell id="ZBBdrp5oAf08COdv5DU7-96" style="edgeStyle=orthogonalEdgeStyle;shape=connector;rounded=0;orthogonalLoop=1;jettySize=auto;html=1;exitX=0;exitY=0.5;exitDx=0;exitDy=0;entryX=0.5;entryY=1;entryDx=0;entryDy=0;strokeColor=default;align=center;verticalAlign=middle;fontFamily=Helvetica;fontSize=11;fontColor=default;labelBackgroundColor=default;endArrow=open;endFill=0;" edge="1" parent="ZBBdrp5oAf08COdv5DU7-89" source="ZBBdrp5oAf08COdv5DU7-94" target="ZBBdrp5oAf08COdv5DU7-95">
          <mxGeometry relative="1" as="geometry" />
        </mxCell>
        <mxCell id="ZBBdrp5oAf08COdv5DU7-97" style="edgeStyle=orthogonalEdgeStyle;shape=connector;rounded=0;orthogonalLoop=1;jettySize=auto;html=1;exitX=0;exitY=0.5;exitDx=0;exitDy=0;entryX=0.5;entryY=0;entryDx=0;entryDy=0;strokeColor=default;align=center;verticalAlign=middle;fontFamily=Helvetica;fontSize=11;fontColor=default;labelBackgroundColor=default;endArrow=open;endFill=0;" edge="1" parent="ZBBdrp5oAf08COdv5DU7-89" source="ZBBdrp5oAf08COdv5DU7-93" target="ZBBdrp5oAf08COdv5DU7-95">
          <mxGeometry relative="1" as="geometry" />
        </mxCell>
        <mxCell id="ZBBdrp5oAf08COdv5DU7-98" value="go to List Component" style="rounded=1;whiteSpace=wrap;html=1;" vertex="1" parent="ZBBdrp5oAf08COdv5DU7-89">
          <mxGeometry x="45" y="300" width="90" height="30" as="geometry" />
        </mxCell>
        <mxCell id="ZBBdrp5oAf08COdv5DU7-99" style="edgeStyle=orthogonalEdgeStyle;shape=connector;rounded=0;orthogonalLoop=1;jettySize=auto;html=1;exitX=1;exitY=0.5;exitDx=0;exitDy=0;entryX=0;entryY=0.5;entryDx=0;entryDy=0;strokeColor=default;align=center;verticalAlign=middle;fontFamily=Helvetica;fontSize=11;fontColor=default;labelBackgroundColor=default;endArrow=open;endFill=0;" edge="1" parent="ZBBdrp5oAf08COdv5DU7-89" source="ZBBdrp5oAf08COdv5DU7-100" target="ZBBdrp5oAf08COdv5DU7-104">
          <mxGeometry relative="1" as="geometry" />
        </mxCell>
        <mxCell id="ZBBdrp5oAf08COdv5DU7-100" value="validate data&amp;nbsp;" style="rounded=1;whiteSpace=wrap;html=1;" vertex="1" parent="ZBBdrp5oAf08COdv5DU7-89">
          <mxGeometry x="20" y="465" width="85" height="30" as="geometry" />
        </mxCell>
        <mxCell id="ZBBdrp5oAf08COdv5DU7-101" value="display succes toast message" style="rounded=1;whiteSpace=wrap;html=1;" vertex="1" parent="ZBBdrp5oAf08COdv5DU7-89">
          <mxGeometry x="97.5" y="577" width="90" height="30" as="geometry" />
        </mxCell>
        <mxCell id="ZBBdrp5oAf08COdv5DU7-102" style="edgeStyle=orthogonalEdgeStyle;shape=connector;rounded=0;orthogonalLoop=1;jettySize=auto;html=1;exitX=0.5;exitY=1;exitDx=0;exitDy=0;entryX=1;entryY=0.5;entryDx=0;entryDy=0;strokeColor=default;align=center;verticalAlign=middle;fontFamily=Helvetica;fontSize=11;fontColor=default;labelBackgroundColor=default;endArrow=open;endFill=0;" edge="1" parent="ZBBdrp5oAf08COdv5DU7-89" source="ZBBdrp5oAf08COdv5DU7-104" target="ZBBdrp5oAf08COdv5DU7-105">
          <mxGeometry relative="1" as="geometry" />
        </mxCell>
        <mxCell id="ZBBdrp5oAf08COdv5DU7-103" value="[invalid]" style="edgeLabel;html=1;align=center;verticalAlign=middle;resizable=0;points=[];fontFamily=Helvetica;fontSize=11;fontColor=default;labelBackgroundColor=default;" vertex="1" connectable="0" parent="ZBBdrp5oAf08COdv5DU7-102">
          <mxGeometry x="-0.7156" y="-1" relative="1" as="geometry">
            <mxPoint x="21" y="12" as="offset" />
          </mxGeometry>
        </mxCell>
        <mxCell id="ZBBdrp5oAf08COdv5DU7-104" value="" style="rhombus;fontFamily=Helvetica;fontSize=11;fontColor=default;labelBackgroundColor=default;" vertex="1" parent="ZBBdrp5oAf08COdv5DU7-89">
          <mxGeometry x="126.99999999999955" y="465" width="30" height="30" as="geometry" />
        </mxCell>
        <mxCell id="ZBBdrp5oAf08COdv5DU7-105" value="display error toast message" style="rounded=1;whiteSpace=wrap;html=1;" vertex="1" parent="ZBBdrp5oAf08COdv5DU7-89">
          <mxGeometry x="17.5" y="527" width="90" height="30" as="geometry" />
        </mxCell>
        <mxCell id="ZBBdrp5oAf08COdv5DU7-106" value="display result" style="rounded=1;whiteSpace=wrap;html=1;" vertex="1" parent="ZBBdrp5oAf08COdv5DU7-89">
          <mxGeometry x="50" y="350" width="85" height="20" as="geometry" />
        </mxCell>
        <mxCell id="ZBBdrp5oAf08COdv5DU7-107" value="go to Edit Item Component" style="rounded=1;whiteSpace=wrap;html=1;" vertex="1" parent="ZBBdrp5oAf08COdv5DU7-89">
          <mxGeometry x="45" y="390" width="90" height="30" as="geometry" />
        </mxCell>
        <mxCell id="ZBBdrp5oAf08COdv5DU7-135" value="Fill Form" style="rounded=1;whiteSpace=wrap;html=1;" vertex="1" parent="ZBBdrp5oAf08COdv5DU7-89">
          <mxGeometry x="50" y="430" width="90" height="30" as="geometry" />
        </mxCell>
        <mxCell id="ZBBdrp5oAf08COdv5DU7-108" value="DB" style="swimlane;startSize=20;html=1;" vertex="1" parent="ZBBdrp5oAf08COdv5DU7-74">
          <mxGeometry x="370" y="20" width="120" height="660" as="geometry" />
        </mxCell>
        <mxCell id="ZBBdrp5oAf08COdv5DU7-109" value="selecet Lists" style="rounded=1;whiteSpace=wrap;html=1;" vertex="1" parent="ZBBdrp5oAf08COdv5DU7-108">
          <mxGeometry x="20" y="110" width="90" height="30" as="geometry" />
        </mxCell>
        <mxCell id="ZBBdrp5oAf08COdv5DU7-110" value="" style="rhombus;fontFamily=Helvetica;fontSize=11;fontColor=default;labelBackgroundColor=default;" vertex="1" parent="ZBBdrp5oAf08COdv5DU7-108">
          <mxGeometry x="49.999999999999545" y="200" width="30" height="30" as="geometry" />
        </mxCell>
        <mxCell id="ZBBdrp5oAf08COdv5DU7-111" style="edgeStyle=orthogonalEdgeStyle;shape=connector;rounded=0;orthogonalLoop=1;jettySize=auto;html=1;exitX=0.5;exitY=1;exitDx=0;exitDy=0;entryX=0.5;entryY=0;entryDx=0;entryDy=0;strokeColor=default;align=center;verticalAlign=middle;fontFamily=Helvetica;fontSize=11;fontColor=default;labelBackgroundColor=default;endArrow=open;endFill=0;" edge="1" parent="ZBBdrp5oAf08COdv5DU7-108" source="ZBBdrp5oAf08COdv5DU7-109" target="ZBBdrp5oAf08COdv5DU7-110">
          <mxGeometry relative="1" as="geometry" />
        </mxCell>
        <mxCell id="ZBBdrp5oAf08COdv5DU7-112" value="insert data" style="rounded=1;whiteSpace=wrap;html=1;" vertex="1" parent="ZBBdrp5oAf08COdv5DU7-108">
          <mxGeometry x="15" y="465" width="90" height="30" as="geometry" />
        </mxCell>
        <mxCell id="ZBBdrp5oAf08COdv5DU7-113" value="select Items" style="rounded=1;whiteSpace=wrap;html=1;" vertex="1" parent="ZBBdrp5oAf08COdv5DU7-108">
          <mxGeometry x="20" y="300" width="90" height="30" as="geometry" />
        </mxCell>
        <mxCell id="ZBBdrp5oAf08COdv5DU7-133" value="select Item" style="rounded=1;whiteSpace=wrap;html=1;" vertex="1" parent="ZBBdrp5oAf08COdv5DU7-108">
          <mxGeometry x="15" y="390" width="90" height="30" as="geometry" />
        </mxCell>
        <mxCell id="ZBBdrp5oAf08COdv5DU7-114" value="" style="edgeStyle=orthogonalEdgeStyle;shape=connector;rounded=0;orthogonalLoop=1;jettySize=auto;html=1;strokeColor=default;align=center;verticalAlign=middle;fontFamily=Helvetica;fontSize=11;fontColor=default;labelBackgroundColor=default;endArrow=open;endFill=0;entryX=0;entryY=0.5;entryDx=0;entryDy=0;" edge="1" parent="ZBBdrp5oAf08COdv5DU7-74" source="ZBBdrp5oAf08COdv5DU7-80" target="ZBBdrp5oAf08COdv5DU7-91">
          <mxGeometry relative="1" as="geometry" />
        </mxCell>
        <mxCell id="ZBBdrp5oAf08COdv5DU7-115" style="edgeStyle=orthogonalEdgeStyle;shape=connector;rounded=0;orthogonalLoop=1;jettySize=auto;html=1;exitX=1;exitY=0.5;exitDx=0;exitDy=0;entryX=0;entryY=0.5;entryDx=0;entryDy=0;strokeColor=default;align=center;verticalAlign=middle;fontFamily=Helvetica;fontSize=11;fontColor=default;labelBackgroundColor=default;endArrow=open;endFill=0;" edge="1" parent="ZBBdrp5oAf08COdv5DU7-74" source="ZBBdrp5oAf08COdv5DU7-92" target="ZBBdrp5oAf08COdv5DU7-109">
          <mxGeometry relative="1" as="geometry" />
        </mxCell>
        <mxCell id="ZBBdrp5oAf08COdv5DU7-116" style="edgeStyle=orthogonalEdgeStyle;shape=connector;rounded=0;orthogonalLoop=1;jettySize=auto;html=1;exitX=0;exitY=0.5;exitDx=0;exitDy=0;entryX=1;entryY=0.5;entryDx=0;entryDy=0;strokeColor=default;align=center;verticalAlign=middle;fontFamily=Helvetica;fontSize=11;fontColor=default;labelBackgroundColor=default;endArrow=open;endFill=0;" edge="1" parent="ZBBdrp5oAf08COdv5DU7-74" source="ZBBdrp5oAf08COdv5DU7-110" target="ZBBdrp5oAf08COdv5DU7-93">
          <mxGeometry relative="1" as="geometry">
            <Array as="points">
              <mxPoint x="350" y="235" />
              <mxPoint x="350" y="204" />
            </Array>
          </mxGeometry>
        </mxCell>
        <mxCell id="ZBBdrp5oAf08COdv5DU7-117" value="[result exist]" style="edgeLabel;html=1;align=center;verticalAlign=middle;resizable=0;points=[];fontFamily=Helvetica;fontSize=11;fontColor=default;labelBackgroundColor=default;" vertex="1" connectable="0" parent="ZBBdrp5oAf08COdv5DU7-116">
          <mxGeometry x="-0.7682" y="-1" relative="1" as="geometry">
            <mxPoint x="-10" y="-14" as="offset" />
          </mxGeometry>
        </mxCell>
        <mxCell id="ZBBdrp5oAf08COdv5DU7-118" style="edgeStyle=orthogonalEdgeStyle;shape=connector;rounded=0;orthogonalLoop=1;jettySize=auto;html=1;exitX=0.5;exitY=1;exitDx=0;exitDy=0;entryX=1;entryY=0.5;entryDx=0;entryDy=0;strokeColor=default;align=center;verticalAlign=middle;fontFamily=Helvetica;fontSize=11;fontColor=default;labelBackgroundColor=default;endArrow=open;endFill=0;" edge="1" parent="ZBBdrp5oAf08COdv5DU7-74" source="ZBBdrp5oAf08COdv5DU7-110" target="ZBBdrp5oAf08COdv5DU7-94">
          <mxGeometry relative="1" as="geometry" />
        </mxCell>
        <mxCell id="ZBBdrp5oAf08COdv5DU7-119" value="[empty result]" style="edgeLabel;html=1;align=center;verticalAlign=middle;resizable=0;points=[];fontFamily=Helvetica;fontSize=11;fontColor=default;labelBackgroundColor=default;" vertex="1" connectable="0" parent="ZBBdrp5oAf08COdv5DU7-118">
          <mxGeometry x="-0.1668" y="-2" relative="1" as="geometry">
            <mxPoint x="-8" y="12" as="offset" />
          </mxGeometry>
        </mxCell>
        <mxCell id="ZBBdrp5oAf08COdv5DU7-120" style="edgeStyle=orthogonalEdgeStyle;shape=connector;rounded=0;orthogonalLoop=1;jettySize=auto;html=1;exitX=0;exitY=0.5;exitDx=0;exitDy=0;entryX=1;entryY=0.5;entryDx=0;entryDy=0;strokeColor=default;align=center;verticalAlign=middle;fontFamily=Helvetica;fontSize=11;fontColor=default;labelBackgroundColor=default;endArrow=open;endFill=0;" edge="1" parent="ZBBdrp5oAf08COdv5DU7-74" source="ZBBdrp5oAf08COdv5DU7-95" target="ZBBdrp5oAf08COdv5DU7-82">
          <mxGeometry relative="1" as="geometry" />
        </mxCell>
        <mxCell id="ZBBdrp5oAf08COdv5DU7-121" style="edgeStyle=orthogonalEdgeStyle;shape=connector;rounded=0;orthogonalLoop=1;jettySize=auto;html=1;exitX=1;exitY=0.5;exitDx=0;exitDy=0;entryX=0;entryY=0.5;entryDx=0;entryDy=0;strokeColor=default;align=center;verticalAlign=middle;fontFamily=Helvetica;fontSize=11;fontColor=default;labelBackgroundColor=default;endArrow=open;endFill=0;" edge="1" parent="ZBBdrp5oAf08COdv5DU7-74" source="ZBBdrp5oAf08COdv5DU7-83" target="ZBBdrp5oAf08COdv5DU7-98">
          <mxGeometry relative="1" as="geometry" />
        </mxCell>
        <mxCell id="ZBBdrp5oAf08COdv5DU7-122" style="edgeStyle=orthogonalEdgeStyle;shape=connector;rounded=0;orthogonalLoop=1;jettySize=auto;html=1;exitX=0.5;exitY=1;exitDx=0;exitDy=0;strokeColor=default;align=center;verticalAlign=middle;fontFamily=Helvetica;fontSize=11;fontColor=default;labelBackgroundColor=default;endArrow=open;endFill=0;entryX=0;entryY=0.5;entryDx=0;entryDy=0;" edge="1" parent="ZBBdrp5oAf08COdv5DU7-74" source="ZBBdrp5oAf08COdv5DU7-84" target="ZBBdrp5oAf08COdv5DU7-100">
          <mxGeometry relative="1" as="geometry">
            <mxPoint x="209.99999999999955" y="430" as="targetPoint" />
          </mxGeometry>
        </mxCell>
        <mxCell id="ZBBdrp5oAf08COdv5DU7-123" style="edgeStyle=orthogonalEdgeStyle;shape=connector;rounded=0;orthogonalLoop=1;jettySize=auto;html=1;exitX=0.5;exitY=1;exitDx=0;exitDy=0;entryX=1;entryY=0.5;entryDx=0;entryDy=0;strokeColor=default;align=center;verticalAlign=middle;fontFamily=Helvetica;fontSize=11;fontColor=default;labelBackgroundColor=default;endArrow=open;endFill=0;" edge="1" parent="ZBBdrp5oAf08COdv5DU7-74" source="ZBBdrp5oAf08COdv5DU7-112" target="ZBBdrp5oAf08COdv5DU7-101">
          <mxGeometry relative="1" as="geometry" />
        </mxCell>
        <mxCell id="ZBBdrp5oAf08COdv5DU7-124" style="edgeStyle=orthogonalEdgeStyle;shape=connector;rounded=0;orthogonalLoop=1;jettySize=auto;html=1;exitX=1;exitY=0.5;exitDx=0;exitDy=0;entryX=0;entryY=0.5;entryDx=0;entryDy=0;strokeColor=default;align=center;verticalAlign=middle;fontFamily=Helvetica;fontSize=11;fontColor=default;labelBackgroundColor=default;endArrow=open;endFill=0;" edge="1" parent="ZBBdrp5oAf08COdv5DU7-74" source="ZBBdrp5oAf08COdv5DU7-104" target="ZBBdrp5oAf08COdv5DU7-112">
          <mxGeometry relative="1" as="geometry" />
        </mxCell>
        <mxCell id="ZBBdrp5oAf08COdv5DU7-125" value="[valid]" style="edgeLabel;html=1;align=center;verticalAlign=middle;resizable=0;points=[];fontFamily=Helvetica;fontSize=11;fontColor=default;labelBackgroundColor=default;" vertex="1" connectable="0" parent="ZBBdrp5oAf08COdv5DU7-124">
          <mxGeometry x="-0.2872" y="1" relative="1" as="geometry">
            <mxPoint y="-10" as="offset" />
          </mxGeometry>
        </mxCell>
        <mxCell id="ZBBdrp5oAf08COdv5DU7-126" style="edgeStyle=orthogonalEdgeStyle;shape=connector;rounded=0;orthogonalLoop=1;jettySize=auto;html=1;exitX=0;exitY=0.5;exitDx=0;exitDy=0;entryX=0;entryY=0.5;entryDx=0;entryDy=0;strokeColor=default;align=center;verticalAlign=middle;fontFamily=Helvetica;fontSize=11;fontColor=default;labelBackgroundColor=default;endArrow=open;endFill=0;" edge="1" parent="ZBBdrp5oAf08COdv5DU7-74" source="ZBBdrp5oAf08COdv5DU7-105" target="ZBBdrp5oAf08COdv5DU7-84">
          <mxGeometry relative="1" as="geometry" />
        </mxCell>
        <mxCell id="ZBBdrp5oAf08COdv5DU7-127" style="edgeStyle=orthogonalEdgeStyle;shape=connector;rounded=0;orthogonalLoop=1;jettySize=auto;html=1;exitX=0;exitY=0.5;exitDx=0;exitDy=0;entryX=1;entryY=0.5;entryDx=0;entryDy=0;strokeColor=default;align=center;verticalAlign=middle;fontFamily=Helvetica;fontSize=11;fontColor=default;labelBackgroundColor=default;endArrow=open;endFill=0;" edge="1" parent="ZBBdrp5oAf08COdv5DU7-74" source="ZBBdrp5oAf08COdv5DU7-101" target="ZBBdrp5oAf08COdv5DU7-87">
          <mxGeometry relative="1" as="geometry" />
        </mxCell>
        <mxCell id="ZBBdrp5oAf08COdv5DU7-128" style="edgeStyle=orthogonalEdgeStyle;shape=connector;rounded=0;orthogonalLoop=1;jettySize=auto;html=1;exitX=1;exitY=0.5;exitDx=0;exitDy=0;entryX=0;entryY=0.5;entryDx=0;entryDy=0;strokeColor=default;align=center;verticalAlign=middle;fontFamily=Helvetica;fontSize=11;fontColor=default;labelBackgroundColor=default;endArrow=open;endFill=0;" edge="1" parent="ZBBdrp5oAf08COdv5DU7-74" source="ZBBdrp5oAf08COdv5DU7-98" target="ZBBdrp5oAf08COdv5DU7-113">
          <mxGeometry relative="1" as="geometry" />
        </mxCell>
        <mxCell id="ZBBdrp5oAf08COdv5DU7-129" style="edgeStyle=orthogonalEdgeStyle;shape=connector;rounded=0;orthogonalLoop=1;jettySize=auto;html=1;exitX=0.5;exitY=1;exitDx=0;exitDy=0;entryX=1;entryY=0.5;entryDx=0;entryDy=0;strokeColor=default;align=center;verticalAlign=middle;fontFamily=Helvetica;fontSize=11;fontColor=default;labelBackgroundColor=default;endArrow=open;endFill=0;" edge="1" parent="ZBBdrp5oAf08COdv5DU7-74" source="ZBBdrp5oAf08COdv5DU7-113" target="ZBBdrp5oAf08COdv5DU7-106">
          <mxGeometry relative="1" as="geometry" />
        </mxCell>
        <mxCell id="ZBBdrp5oAf08COdv5DU7-130" style="edgeStyle=orthogonalEdgeStyle;shape=connector;rounded=0;orthogonalLoop=1;jettySize=auto;html=1;exitX=0;exitY=0.5;exitDx=0;exitDy=0;entryX=1;entryY=0.5;entryDx=0;entryDy=0;strokeColor=default;align=center;verticalAlign=middle;fontFamily=Helvetica;fontSize=11;fontColor=default;labelBackgroundColor=default;endArrow=open;endFill=0;" edge="1" parent="ZBBdrp5oAf08COdv5DU7-74" source="ZBBdrp5oAf08COdv5DU7-106" target="ZBBdrp5oAf08COdv5DU7-88">
          <mxGeometry relative="1" as="geometry" />
        </mxCell>
        <mxCell id="ZBBdrp5oAf08COdv5DU7-131" style="edgeStyle=orthogonalEdgeStyle;shape=connector;rounded=0;orthogonalLoop=1;jettySize=auto;html=1;exitX=0.5;exitY=1;exitDx=0;exitDy=0;entryX=0;entryY=0.5;entryDx=0;entryDy=0;strokeColor=default;align=center;verticalAlign=middle;fontFamily=Helvetica;fontSize=11;fontColor=default;labelBackgroundColor=default;endArrow=open;endFill=0;" edge="1" parent="ZBBdrp5oAf08COdv5DU7-74" source="ZBBdrp5oAf08COdv5DU7-88" target="ZBBdrp5oAf08COdv5DU7-107">
          <mxGeometry relative="1" as="geometry" />
        </mxCell>
        <mxCell id="ZBBdrp5oAf08COdv5DU7-132" style="edgeStyle=orthogonalEdgeStyle;shape=connector;rounded=0;orthogonalLoop=1;jettySize=auto;html=1;exitX=1;exitY=0.5;exitDx=0;exitDy=0;entryX=0;entryY=0.5;entryDx=0;entryDy=0;strokeColor=default;align=center;verticalAlign=middle;fontFamily=Helvetica;fontSize=11;fontColor=default;labelBackgroundColor=default;endArrow=open;endFill=0;" edge="1" parent="ZBBdrp5oAf08COdv5DU7-74" source="ZBBdrp5oAf08COdv5DU7-107" target="ZBBdrp5oAf08COdv5DU7-133">
          <mxGeometry relative="1" as="geometry" />
        </mxCell>
        <mxCell id="ZBBdrp5oAf08COdv5DU7-137" style="edgeStyle=orthogonalEdgeStyle;shape=connector;rounded=0;orthogonalLoop=1;jettySize=auto;html=1;exitX=0.5;exitY=1;exitDx=0;exitDy=0;entryX=1;entryY=0.5;entryDx=0;entryDy=0;strokeColor=default;align=center;verticalAlign=middle;fontFamily=Helvetica;fontSize=11;fontColor=default;labelBackgroundColor=default;endArrow=open;endFill=0;" edge="1" parent="ZBBdrp5oAf08COdv5DU7-74" source="ZBBdrp5oAf08COdv5DU7-133" target="ZBBdrp5oAf08COdv5DU7-135">
          <mxGeometry relative="1" as="geometry" />
        </mxCell>
        <mxCell id="ZBBdrp5oAf08COdv5DU7-138" style="edgeStyle=orthogonalEdgeStyle;shape=connector;rounded=0;orthogonalLoop=1;jettySize=auto;html=1;exitX=0;exitY=0.5;exitDx=0;exitDy=0;entryX=1;entryY=0.5;entryDx=0;entryDy=0;strokeColor=default;align=center;verticalAlign=middle;fontFamily=Helvetica;fontSize=11;fontColor=default;labelBackgroundColor=default;endArrow=open;endFill=0;" edge="1" parent="ZBBdrp5oAf08COdv5DU7-74" source="ZBBdrp5oAf08COdv5DU7-135" target="ZBBdrp5oAf08COdv5DU7-84">
          <mxGeometry relative="1" as="geometry" />
        </mxCell>
      </root>
    </mxGraphModel>
  </diagram>
</mxfile>
